<?plantuml 1.2026.2?>
<svg xmlns="http://www.w3.org/2000/svg" xmlns:xlink="http://www.w3.org/1999/xlink" contentStyleType="text/css" data-diagram-type="CLASS" height="386px" preserveAspectRatio="none" style="width:447px;height:386px;background:#FFFFFF;" version="1.1" viewBox="0 0 447 386" width="447px" zoomAndPan="magnify"><defs/><g><!--class dp--><g class="entity" data-qualified-name="dp" data-source-line="1" id="ent0002"><rect fill="#F1F1F1" height="48" rx="2.5" ry="2.5" style="stroke:#181818;stroke-width:0.5;" width="176.0332" x="72" y="7"/><ellipse cx="87" cy="23" fill="#ADD1B2" rx="11" ry="11" style="stroke:#181818;stroke-width:1;"/><path d="M89.9688,28.6406 Q89.3906,28.9375 88.75,29.0781 Q88.1094,29.2344 87.4063,29.2344 Q84.9063,29.2344 83.5781,27.5938 Q82.2656,25.9375 82.2656,22.8125 Q82.2656,19.6875 83.5781,18.0313 Q84.9063,16.375 87.4063,16.375 Q88.1094,16.375 88.75,16.5313 Q89.4063,16.6875 89.9688,16.9844 L89.9688,19.7031 Q89.3438,19.125 88.75,18.8594 Q88.1563,18.5781 87.5313,18.5781 Q86.1875,18.5781 85.5,19.6563 Q84.8125,20.7188 84.8125,22.8125 Q84.8125,24.9063 85.5,25.9844 Q86.1875,27.0469 87.5313,27.0469 Q88.1563,27.0469 88.75,26.7813 Q89.3438,26.5 89.9688,25.9219 L89.9688,28.6406 Z " fill="#000000"/><text fill="#000000" font-family="sans-serif" font-size="14" lengthAdjust="spacing" textLength="144.0332" x="101" y="27.8467">Dopravni prostredek</text><line style="stroke:#181818;stroke-width:0.5;" x1="73" x2="247.0332" y1="39" y2="39"/><line style="stroke:#181818;stroke-width:0.5;" x1="73" x2="247.0332" y1="47" y2="47"/></g><!--class Leteck?--><g class="entity" data-qualified-name="Leteck." data-source-line="2" id="ent0003"><rect fill="#F1F1F1" height="48" rx="2.5" ry="2.5" style="stroke:#181818;stroke-width:0.5;" width="86.6055" x="240.5" y="115"/><ellipse cx="255.5" cy="131" fill="#ADD1B2" rx="11" ry="11" style="stroke:#181818;stroke-width:1;"/><path d="M258.4688,136.6406 Q257.8906,136.9375 257.25,137.0781 Q256.6094,137.2344 255.9063,137.2344 Q253.4063,137.2344 252.0781,135.5938 Q250.7656,133.9375 250.7656,130.8125 Q250.7656,127.6875 252.0781,126.0313 Q253.4063,124.375 255.9063,124.375 Q256.6094,124.375 257.25,124.5313 Q257.9063,124.6875 258.4688,124.9844 L258.4688,127.7031 Q257.8438,127.125 257.25,126.8594 Q256.6563,126.5781 256.0313,126.5781 Q254.6875,126.5781 254,127.6563 Q253.3125,128.7188 253.3125,130.8125 Q253.3125,132.9063 254,133.9844 Q254.6875,135.0469 256.0313,135.0469 Q256.6563,135.0469 257.25,134.7813 Q257.8438,134.5 258.4688,133.9219 L258.4688,136.6406 Z " fill="#000000"/><text fill="#000000" font-family="sans-serif" font-size="14" lengthAdjust="spacing" textLength="54.6055" x="269.5" y="135.8467">Letecký</text><line style="stroke:#181818;stroke-width:0.5;" x1="241.5" x2="326.1055" y1="147" y2="147"/><line style="stroke:#181818;stroke-width:0.5;" x1="241.5" x2="326.1055" y1="155" y2="155"/></g><!--class Letadlo--><g class="entity" data-qualified-name="Letadlo" data-source-line="3" id="ent0006"><rect fill="#F1F1F1" height="48" rx="2.5" ry="2.5" style="stroke:#181818;stroke-width:0.5;" width="83.8232" x="235" y="223"/><ellipse cx="250" cy="239" fill="#ADD1B2" rx="11" ry="11" style="stroke:#181818;stroke-width:1;"/><path d="M252.9688,244.6406 Q252.3906,244.9375 251.75,245.0781 Q251.1094,245.2344 250.4063,245.2344 Q247.9063,245.2344 246.5781,243.5938 Q245.2656,241.9375 245.2656,238.8125 Q245.2656,235.6875 246.5781,234.0313 Q247.9063,232.375 250.4063,232.375 Q251.1094,232.375 251.75,232.5313 Q252.4063,232.6875 252.9688,232.9844 L252.9688,235.7031 Q252.3438,235.125 251.75,234.8594 Q251.1563,234.5781 250.5313,234.5781 Q249.1875,234.5781 248.5,235.6563 Q247.8125,236.7188 247.8125,238.8125 Q247.8125,240.9063 248.5,241.9844 Q249.1875,243.0469 250.5313,243.0469 Q251.1563,243.0469 251.75,242.7813 Q252.3438,242.5 252.9688,241.9219 L252.9688,244.6406 Z " fill="#000000"/><text fill="#000000" font-family="sans-serif" font-size="14" lengthAdjust="spacing" textLength="51.8232" x="264" y="243.8467">Letadlo</text><line style="stroke:#181818;stroke-width:0.5;" x1="236" x2="317.8232" y1="255" y2="255"/><line style="stroke:#181818;stroke-width:0.5;" x1="236" x2="317.8232" y1="263" y2="263"/></g><!--class Vrtuln?k--><g class="entity" data-qualified-name="Vrtuln.k" data-source-line="4" id="ent0009"><rect fill="#F1F1F1" height="48" rx="2.5" ry="2.5" style="stroke:#181818;stroke-width:0.5;" width="86.4551" x="354" y="223"/><ellipse cx="369" cy="239" fill="#ADD1B2" rx="11" ry="11" style="stroke:#181818;stroke-width:1;"/><path d="M371.9688,244.6406 Q371.3906,244.9375 370.75,245.0781 Q370.1094,245.2344 369.4063,245.2344 Q366.9063,245.2344 365.5781,243.5938 Q364.2656,241.9375 364.2656,238.8125 Q364.2656,235.6875 365.5781,234.0313 Q366.9063,232.375 369.4063,232.375 Q370.1094,232.375 370.75,232.5313 Q371.4063,232.6875 371.9688,232.9844 L371.9688,235.7031 Q371.3438,235.125 370.75,234.8594 Q370.1563,234.5781 369.5313,234.5781 Q368.1875,234.5781 367.5,235.6563 Q366.8125,236.7188 366.8125,238.8125 Q366.8125,240.9063 367.5,241.9844 Q368.1875,243.0469 369.5313,243.0469 Q370.1563,243.0469 370.75,242.7813 Q371.3438,242.5 371.9688,241.9219 L371.9688,244.6406 Z " fill="#000000"/><text fill="#000000" font-family="sans-serif" font-size="14" lengthAdjust="spacing" textLength="54.4551" x="383" y="243.8467">Vrtulník</text><line style="stroke:#181818;stroke-width:0.5;" x1="355" x2="439.4551" y1="255" y2="255"/><line style="stroke:#181818;stroke-width:0.5;" x1="355" x2="439.4551" y1="263" y2="263"/></g><!--class Pozemn?--><g class="entity" data-qualified-name="Pozemn." data-source-line="6" id="ent0012"><rect fill="#F1F1F1" height="48" rx="2.5" ry="2.5" style="stroke:#181818;stroke-width:0.5;" width="91.3701" x="114.5" y="115"/><ellipse cx="129.5" cy="131" fill="#ADD1B2" rx="11" ry="11" style="stroke:#181818;stroke-width:1;"/><path d="M132.4688,136.6406 Q131.8906,136.9375 131.25,137.0781 Q130.6094,137.2344 129.9063,137.2344 Q127.4063,137.2344 126.0781,135.5938 Q124.7656,133.9375 124.7656,130.8125 Q124.7656,127.6875 126.0781,126.0313 Q127.4063,124.375 129.9063,124.375 Q130.6094,124.375 131.25,124.5313 Q131.9063,124.6875 132.4688,124.9844 L132.4688,127.7031 Q131.8438,127.125 131.25,126.8594 Q130.6563,126.5781 130.0313,126.5781 Q128.6875,126.5781 128,127.6563 Q127.3125,128.7188 127.3125,130.8125 Q127.3125,132.9063 128,133.9844 Q128.6875,135.0469 130.0313,135.0469 Q130.6563,135.0469 131.25,134.7813 Q131.8438,134.5 132.4688,133.9219 L132.4688,136.6406 Z " fill="#000000"/><text fill="#000000" font-family="sans-serif" font-size="14" lengthAdjust="spacing" textLength="59.3701" x="143.5" y="135.8467">Pozemní</text><line style="stroke:#181818;stroke-width:0.5;" x1="115.5" x2="204.8701" y1="147" y2="147"/><line style="stroke:#181818;stroke-width:0.5;" x1="115.5" x2="204.8701" y1="155" y2="155"/></g><!--class Auto--><g class="entity" data-qualified-name="Auto" data-source-line="7" id="ent0015"><rect fill="#F1F1F1" height="48" rx="2.5" ry="2.5" style="stroke:#181818;stroke-width:0.5;" width="64.5049" x="127.5" y="223"/><ellipse cx="142.5" cy="239" fill="#ADD1B2" rx="11" ry="11" style="stroke:#181818;stroke-width:1;"/><path d="M145.4688,244.6406 Q144.8906,244.9375 144.25,245.0781 Q143.6094,245.2344 142.9063,245.2344 Q140.4063,245.2344 139.0781,243.5938 Q137.7656,241.9375 137.7656,238.8125 Q137.7656,235.6875 139.0781,234.0313 Q140.4063,232.375 142.9063,232.375 Q143.6094,232.375 144.25,232.5313 Q144.9063,232.6875 145.4688,232.9844 L145.4688,235.7031 Q144.8438,235.125 144.25,234.8594 Q143.6563,234.5781 143.0313,234.5781 Q141.6875,234.5781 141,235.6563 Q140.3125,236.7188 140.3125,238.8125 Q140.3125,240.9063 141,241.9844 Q141.6875,243.0469 143.0313,243.0469 Q143.6563,243.0469 144.25,242.7813 Q144.8438,242.5 145.4688,241.9219 L145.4688,244.6406 Z " fill="#000000"/><text fill="#000000" font-family="sans-serif" font-size="14" lengthAdjust="spacing" textLength="32.5049" x="156.5" y="243.8467">Auto</text><line style="stroke:#181818;stroke-width:0.5;" x1="128.5" x2="191.0049" y1="255" y2="255"/><line style="stroke:#181818;stroke-width:0.5;" x1="128.5" x2="191.0049" y1="263" y2="263"/></g><!--class Osobn? auto--><g class="entity" data-qualified-name="Osobn. auto" data-source-line="8" id="ent0018"><rect fill="#F1F1F1" height="48" rx="2.5" ry="2.5" style="stroke:#181818;stroke-width:0.5;" width="116.4854" x="23" y="331"/><ellipse cx="38" cy="347" fill="#ADD1B2" rx="11" ry="11" style="stroke:#181818;stroke-width:1;"/><path d="M40.9688,352.6406 Q40.3906,352.9375 39.75,353.0781 Q39.1094,353.2344 38.4063,353.2344 Q35.9063,353.2344 34.5781,351.5938 Q33.2656,349.9375 33.2656,346.8125 Q33.2656,343.6875 34.5781,342.0313 Q35.9063,340.375 38.4063,340.375 Q39.1094,340.375 39.75,340.5313 Q40.4063,340.6875 40.9688,340.9844 L40.9688,343.7031 Q40.3438,343.125 39.75,342.8594 Q39.1563,342.5781 38.5313,342.5781 Q37.1875,342.5781 36.5,343.6563 Q35.8125,344.7188 35.8125,346.8125 Q35.8125,348.9063 36.5,349.9844 Q37.1875,351.0469 38.5313,351.0469 Q39.1563,351.0469 39.75,350.7813 Q40.3438,350.5 40.9688,349.9219 L40.9688,352.6406 Z " fill="#000000"/><text fill="#000000" font-family="sans-serif" font-size="14" lengthAdjust="spacing" textLength="84.4854" x="52" y="351.8467">Osobní auto</text><line style="stroke:#181818;stroke-width:0.5;" x1="24" x2="138.4854" y1="363" y2="363"/><line style="stroke:#181818;stroke-width:0.5;" x1="24" x2="138.4854" y1="371" y2="371"/></g><!--class N?kladn? auto--><g class="entity" data-qualified-name="N.kladn. auto" data-source-line="9" id="ent0021"><rect fill="#F1F1F1" height="48" rx="2.5" ry="2.5" style="stroke:#181818;stroke-width:0.5;" width="129.2344" x="174.5" y="331"/><ellipse cx="189.5" cy="347" fill="#ADD1B2" rx="11" ry="11" style="stroke:#181818;stroke-width:1;"/><path d="M192.4688,352.6406 Q191.8906,352.9375 191.25,353.0781 Q190.6094,353.2344 189.9063,353.2344 Q187.4063,353.2344 186.0781,351.5938 Q184.7656,349.9375 184.7656,346.8125 Q184.7656,343.6875 186.0781,342.0313 Q187.4063,340.375 189.9063,340.375 Q190.6094,340.375 191.25,340.5313 Q191.9063,340.6875 192.4688,340.9844 L192.4688,343.7031 Q191.8438,343.125 191.25,342.8594 Q190.6563,342.5781 190.0313,342.5781 Q188.6875,342.5781 188,343.6563 Q187.3125,344.7188 187.3125,346.8125 Q187.3125,348.9063 188,349.9844 Q188.6875,351.0469 190.0313,351.0469 Q190.6563,351.0469 191.25,350.7813 Q191.8438,350.5 192.4688,349.9219 L192.4688,352.6406 Z " fill="#000000"/><text fill="#000000" font-family="sans-serif" font-size="14" lengthAdjust="spacing" textLength="97.2344" x="203.5" y="351.8467">Nákladní auto</text><line style="stroke:#181818;stroke-width:0.5;" x1="175.5" x2="302.7344" y1="363" y2="363"/><line style="stroke:#181818;stroke-width:0.5;" x1="175.5" x2="302.7344" y1="371" y2="371"/></g><!--class Vodn?--><g class="entity" data-qualified-name="Vodn." data-source-line="11" id="ent0024"><rect fill="#F1F1F1" height="48" rx="2.5" ry="2.5" style="stroke:#181818;stroke-width:0.5;" width="71.792" x="7" y="115"/><ellipse cx="22" cy="131" fill="#ADD1B2" rx="11" ry="11" style="stroke:#181818;stroke-width:1;"/><path d="M24.9688,136.6406 Q24.3906,136.9375 23.75,137.0781 Q23.1094,137.2344 22.4063,137.2344 Q19.9063,137.2344 18.5781,135.5938 Q17.2656,133.9375 17.2656,130.8125 Q17.2656,127.6875 18.5781,126.0313 Q19.9063,124.375 22.4063,124.375 Q23.1094,124.375 23.75,124.5313 Q24.4063,124.6875 24.9688,124.9844 L24.9688,127.7031 Q24.3438,127.125 23.75,126.8594 Q23.1563,126.5781 22.5313,126.5781 Q21.1875,126.5781 20.5,127.6563 Q19.8125,128.7188 19.8125,130.8125 Q19.8125,132.9063 20.5,133.9844 Q21.1875,135.0469 22.5313,135.0469 Q23.1563,135.0469 23.75,134.7813 Q24.3438,134.5 24.9688,133.9219 L24.9688,136.6406 Z " fill="#000000"/><text fill="#000000" font-family="sans-serif" font-size="14" lengthAdjust="spacing" textLength="39.792" x="36" y="135.8467">Vodní</text><line style="stroke:#181818;stroke-width:0.5;" x1="8" x2="77.792" y1="147" y2="147"/><line style="stroke:#181818;stroke-width:0.5;" x1="8" x2="77.792" y1="155" y2="155"/></g><!--class Lo?--><g class="entity" data-qualified-name="Lo." data-source-line="12" id="ent0027"><rect fill="#F1F1F1" height="48" rx="2.5" ry="2.5" style="stroke:#181818;stroke-width:0.5;" width="57.252" x="14.5" y="223"/><ellipse cx="29.5" cy="239" fill="#ADD1B2" rx="11" ry="11" style="stroke:#181818;stroke-width:1;"/><path d="M32.4688,244.6406 Q31.8906,244.9375 31.25,245.0781 Q30.6094,245.2344 29.9063,245.2344 Q27.4063,245.2344 26.0781,243.5938 Q24.7656,241.9375 24.7656,238.8125 Q24.7656,235.6875 26.0781,234.0313 Q27.4063,232.375 29.9063,232.375 Q30.6094,232.375 31.25,232.5313 Q31.9063,232.6875 32.4688,232.9844 L32.4688,235.7031 Q31.8438,235.125 31.25,234.8594 Q30.6563,234.5781 30.0313,234.5781 Q28.6875,234.5781 28,235.6563 Q27.3125,236.7188 27.3125,238.8125 Q27.3125,240.9063 28,241.9844 Q28.6875,243.0469 30.0313,243.0469 Q30.6563,243.0469 31.25,242.7813 Q31.8438,242.5 32.4688,241.9219 L32.4688,244.6406 Z " fill="#000000"/><text fill="#000000" font-family="sans-serif" font-size="14" lengthAdjust="spacing" textLength="25.252" x="43.5" y="243.8467">Loď</text><line style="stroke:#181818;stroke-width:0.5;" x1="15.5" x2="70.752" y1="255" y2="255"/><line style="stroke:#181818;stroke-width:0.5;" x1="15.5" x2="70.752" y1="263" y2="263"/></g><!--reverse link dp to Leteck?--><g class="link" data-entity-1="ent0002" data-entity-2="ent0003" data-link-type="extension" data-source-line="2" id="lnk5"><path codeLine="2" d="M200.5897,66.699 C221.2397,84.359 235.97,96.94 256.72,114.68" fill="none" id="dp-backto-Letecký" style="stroke:#181818;stroke-width:1;"/><polygon fill="none" points="186.91,55,196.69,71.2589,204.4894,62.1391,186.91,55" style="stroke:#181818;stroke-width:1;"/></g><!--reverse link Leteck? to Letadlo--><g class="link" data-entity-1="ent0003" data-entity-2="ent0006" data-link-type="extension" data-source-line="3" id="lnk8"><path codeLine="3" d="M281.3002,180.9613 C280.1402,198.6213 279.71,204.94 278.54,222.68" fill="none" id="Letecký-backto-Letadlo" style="stroke:#181818;stroke-width:1;"/><polygon fill="none" points="282.48,163,275.3131,180.568,287.2873,181.3546,282.48,163" style="stroke:#181818;stroke-width:1;"/></g><!--reverse link Leteck? to Vrtuln?k--><g class="link" data-entity-1="ent0003" data-entity-2="ent0009" data-link-type="extension" data-source-line="4" id="lnk11"><path codeLine="4" d="M321.646,175.317 C340.466,192.977 353.23,204.94 372.14,222.68" fill="none" id="Letecký-backto-Vrtulník" style="stroke:#181818;stroke-width:1;"/><polygon fill="none" points="308.52,163,317.5404,179.6923,325.7517,170.9416,308.52,163" style="stroke:#181818;stroke-width:1;"/></g><!--reverse link dp to Pozemn?--><g class="link" data-entity-1="ent0002" data-entity-2="ent0012" data-link-type="extension" data-source-line="6" id="lnk14"><path codeLine="6" d="M160,73 C160,90.66 160,96.94 160,114.68" fill="none" id="dp-backto-Pozemní" style="stroke:#181818;stroke-width:1;"/><polygon fill="none" points="160,55,154,73,166,73,160,55" style="stroke:#181818;stroke-width:1;"/></g><!--reverse link Pozemn? to Auto--><g class="link" data-entity-1="ent0012" data-entity-2="ent0015" data-link-type="extension" data-source-line="7" id="lnk17"><path codeLine="7" d="M160,181 C160,198.66 160,204.94 160,222.68" fill="none" id="Pozemní-backto-Auto" style="stroke:#181818;stroke-width:1;"/><polygon fill="none" points="160,163,154,181,166,181,160,163" style="stroke:#181818;stroke-width:1;"/></g><!--reverse link Auto to Osobn? auto--><g class="link" data-entity-1="ent0015" data-entity-2="ent0018" data-link-type="extension" data-source-line="8" id="lnk20"><path codeLine="8" d="M132.1045,285.4333 C118.9445,303.0933 111.6,312.94 98.38,330.68" fill="none" id="Auto-backto-Osobní auto" style="stroke:#181818;stroke-width:1;"/><polygon fill="none" points="142.86,271,127.2934,281.8481,136.9156,289.0184,142.86,271" style="stroke:#181818;stroke-width:1;"/></g><!--reverse link Auto to N?kladn? auto--><g class="link" data-entity-1="ent0015" data-entity-2="ent0021" data-link-type="extension" data-source-line="9" id="lnk23"><path codeLine="9" d="M187.8955,285.4333 C201.0555,303.0933 208.4,312.94 221.62,330.68" fill="none" id="Auto-backto-Nákladní auto" style="stroke:#181818;stroke-width:1;"/><polygon fill="none" points="177.14,271,183.0844,289.0184,192.7066,281.8481,177.14,271" style="stroke:#181818;stroke-width:1;"/></g><!--reverse link dp to Vodn?--><g class="link" data-entity-1="ent0002" data-entity-2="ent0024" data-link-type="extension" data-source-line="11" id="lnk26"><path codeLine="11" d="M121.2713,67.0863 C101.7813,84.7463 88.32,96.94 68.74,114.68" fill="none" id="dp-backto-Vodní" style="stroke:#181818;stroke-width:1;"/><polygon fill="none" points="134.61,55,117.2425,62.6401,125.3,71.5325,134.61,55" style="stroke:#181818;stroke-width:1;"/></g><!--reverse link Vodn? to Lo?--><g class="link" data-entity-1="ent0024" data-entity-2="ent0027" data-link-type="extension" data-source-line="12" id="lnk29"><path codeLine="12" d="M43,181 C43,198.66 43,204.94 43,222.68" fill="none" id="Vodní-backto-Loď" style="stroke:#181818;stroke-width:1;"/><polygon fill="none" points="43,163,37,181,49,181,43,163" style="stroke:#181818;stroke-width:1;"/></g><?plantuml-src Iyv9B2vMK7B9BoXABClBL2WeoYykAKfDISrMKaWiLaWfuF99BKbDpZwyLq6tj42tnWugb9YIawy04rA0gU4AAoefpSaxl3ORBWUNuWh8hqhD1Sef89daM5g2C0QcW4l9lpW_2QGo4IYj19S7AUPIyZkyC3idCGKXZIpB5PQVWcQ5J_wHVXWN8Wi0?></g></svg>