<?plantuml 1.2026.2?>
<svg xmlns="http://www.w3.org/2000/svg" xmlns:xlink="http://www.w3.org/1999/xlink" contentStyleType="text/css" data-diagram-type="CLASS" height="450px" preserveAspectRatio="none" style="width:544px;height:450px;background:#FFFFFF;" version="1.1" viewBox="0 0 544 450" width="544px" zoomAndPan="magnify"><defs/><g><!--class dp--><g class="entity" data-qualified-name="dp" data-source-line="1" id="ent0002"><rect fill="#F1F1F1" height="64.2969" rx="2.5" ry="2.5" style="stroke:#181818;stroke-width:0.5;" width="176.0332" x="99" y="7"/><ellipse cx="114" cy="23" fill="#ADD1B2" rx="11" ry="11" style="stroke:#181818;stroke-width:1;"/><path d="M116.9688,28.6406 Q116.3906,28.9375 115.75,29.0781 Q115.1094,29.2344 114.4063,29.2344 Q111.9063,29.2344 110.5781,27.5938 Q109.2656,25.9375 109.2656,22.8125 Q109.2656,19.6875 110.5781,18.0313 Q111.9063,16.375 114.4063,16.375 Q115.1094,16.375 115.75,16.5313 Q116.4063,16.6875 116.9688,16.9844 L116.9688,19.7031 Q116.3438,19.125 115.75,18.8594 Q115.1563,18.5781 114.5313,18.5781 Q113.1875,18.5781 112.5,19.6563 Q111.8125,20.7188 111.8125,22.8125 Q111.8125,24.9063 112.5,25.9844 Q113.1875,27.0469 114.5313,27.0469 Q115.1563,27.0469 115.75,26.7813 Q116.3438,26.5 116.9688,25.9219 L116.9688,28.6406 Z " fill="#000000"/><text fill="#000000" font-family="sans-serif" font-size="14" lengthAdjust="spacing" textLength="144.0332" x="128" y="27.8467">Dopravni prostredek</text><line style="stroke:#181818;stroke-width:0.5;" x1="100" x2="274.0332" y1="39" y2="39"/><g data-visibility-modifier="PUBLIC_FIELD"><ellipse cx="110" cy="52.6484" fill="none" rx="3" ry="3" style="stroke:#038048;stroke-width:1;"/></g><text fill="#000000" font-family="sans-serif" font-size="14" lengthAdjust="spacing" textLength="55.8496" x="119" y="55.9951">rychlost</text><line style="stroke:#181818;stroke-width:0.5;" x1="100" x2="274.0332" y1="63.2969" y2="63.2969"/></g><!--class Leteck?--><g class="entity" data-qualified-name="Leteck." data-source-line="5" id="ent0003"><rect fill="#F1F1F1" height="64.2969" rx="2.5" ry="2.5" style="stroke:#181818;stroke-width:0.5;" width="86.6055" x="293.5" y="131"/><ellipse cx="308.5" cy="147" fill="#ADD1B2" rx="11" ry="11" style="stroke:#181818;stroke-width:1;"/><path d="M311.4688,152.6406 Q310.8906,152.9375 310.25,153.0781 Q309.6094,153.2344 308.9063,153.2344 Q306.4063,153.2344 305.0781,151.5938 Q303.7656,149.9375 303.7656,146.8125 Q303.7656,143.6875 305.0781,142.0313 Q306.4063,140.375 308.9063,140.375 Q309.6094,140.375 310.25,140.5313 Q310.9063,140.6875 311.4688,140.9844 L311.4688,143.7031 Q310.8438,143.125 310.25,142.8594 Q309.6563,142.5781 309.0313,142.5781 Q307.6875,142.5781 307,143.6563 Q306.3125,144.7188 306.3125,146.8125 Q306.3125,148.9063 307,149.9844 Q307.6875,151.0469 309.0313,151.0469 Q309.6563,151.0469 310.25,150.7813 Q310.8438,150.5 311.4688,149.9219 L311.4688,152.6406 Z " fill="#000000"/><text fill="#000000" font-family="sans-serif" font-size="14" lengthAdjust="spacing" textLength="54.6055" x="322.5" y="151.8467">Letecký</text><line style="stroke:#181818;stroke-width:0.5;" x1="294.5" x2="379.1055" y1="163" y2="163"/><g data-visibility-modifier="PUBLIC_FIELD"><ellipse cx="304.5" cy="176.6484" fill="none" rx="3" ry="3" style="stroke:#038048;stroke-width:1;"/></g><text fill="#000000" font-family="sans-serif" font-size="14" lengthAdjust="spacing" textLength="40.5508" x="313.5" y="179.9951">výška</text><line style="stroke:#181818;stroke-width:0.5;" x1="294.5" x2="379.1055" y1="187.2969" y2="187.2969"/></g><!--class Letadlo--><g class="entity" data-qualified-name="Letadlo" data-source-line="9" id="ent0004"><rect fill="#F1F1F1" height="64.2969" rx="2.5" ry="2.5" style="stroke:#181818;stroke-width:0.5;" width="111.9346" x="275" y="255"/><ellipse cx="302.6501" cy="271" fill="#ADD1B2" rx="11" ry="11" style="stroke:#181818;stroke-width:1;"/><path d="M305.6188,276.6406 Q305.0407,276.9375 304.4001,277.0781 Q303.7595,277.2344 303.0563,277.2344 Q300.5563,277.2344 299.2282,275.5938 Q297.9157,273.9375 297.9157,270.8125 Q297.9157,267.6875 299.2282,266.0313 Q300.5563,264.375 303.0563,264.375 Q303.7595,264.375 304.4001,264.5313 Q305.0563,264.6875 305.6188,264.9844 L305.6188,267.7031 Q304.9938,267.125 304.4001,266.8594 Q303.8063,266.5781 303.1813,266.5781 Q301.8376,266.5781 301.1501,267.6563 Q300.4626,268.7188 300.4626,270.8125 Q300.4626,272.9063 301.1501,273.9844 Q301.8376,275.0469 303.1813,275.0469 Q303.8063,275.0469 304.4001,274.7813 Q304.9938,274.5 305.6188,273.9219 L305.6188,276.6406 Z " fill="#000000"/><text fill="#000000" font-family="sans-serif" font-size="14" lengthAdjust="spacing" textLength="51.8232" x="319.4612" y="275.8467">Letadlo</text><line style="stroke:#181818;stroke-width:0.5;" x1="276" x2="385.9346" y1="287" y2="287"/><g data-visibility-modifier="PUBLIC_FIELD"><ellipse cx="286" cy="300.6484" fill="none" rx="3" ry="3" style="stroke:#038048;stroke-width:1;"/></g><text fill="#000000" font-family="sans-serif" font-size="14" lengthAdjust="spacing" textLength="85.9346" x="295" y="303.9951">je_proudove</text><line style="stroke:#181818;stroke-width:0.5;" x1="276" x2="385.9346" y1="311.2969" y2="311.2969"/></g><!--class Vrtuln?k--><g class="entity" data-qualified-name="Vrtuln.k" data-source-line="13" id="ent0005"><rect fill="#F1F1F1" height="64.2969" rx="2.5" ry="2.5" style="stroke:#181818;stroke-width:0.5;" width="115.2568" x="422.5" y="255"/><ellipse cx="450.4608" cy="271" fill="#ADD1B2" rx="11" ry="11" style="stroke:#181818;stroke-width:1;"/><path d="M453.4295,276.6406 Q452.8514,276.9375 452.2108,277.0781 Q451.5702,277.2344 450.867,277.2344 Q448.367,277.2344 447.0389,275.5938 Q445.7264,273.9375 445.7264,270.8125 Q445.7264,267.6875 447.0389,266.0313 Q448.367,264.375 450.867,264.375 Q451.5702,264.375 452.2108,264.5313 Q452.867,264.6875 453.4295,264.9844 L453.4295,267.7031 Q452.8045,267.125 452.2108,266.8594 Q451.617,266.5781 450.992,266.5781 Q449.6483,266.5781 448.9608,267.6563 Q448.2733,268.7188 448.2733,270.8125 Q448.2733,272.9063 448.9608,273.9844 Q449.6483,275.0469 450.992,275.0469 Q451.617,275.0469 452.2108,274.7813 Q452.8045,274.5 453.4295,273.9219 L453.4295,276.6406 Z " fill="#000000"/><text fill="#000000" font-family="sans-serif" font-size="14" lengthAdjust="spacing" textLength="54.4551" x="467.341" y="275.8467">Vrtulník</text><line style="stroke:#181818;stroke-width:0.5;" x1="423.5" x2="536.7568" y1="287" y2="287"/><g data-visibility-modifier="PUBLIC_FIELD"><ellipse cx="433.5" cy="300.6484" fill="none" rx="3" ry="3" style="stroke:#038048;stroke-width:1;"/></g><text fill="#000000" font-family="sans-serif" font-size="14" lengthAdjust="spacing" textLength="89.2568" x="442.5" y="303.9951">počet_rotorů</text><line style="stroke:#181818;stroke-width:0.5;" x1="423.5" x2="536.7568" y1="311.2969" y2="311.2969"/></g><!--class Vodn?--><g class="entity" data-qualified-name="Vodn." data-source-line="17" id="ent0006"><rect fill="#F1F1F1" height="64.2969" rx="2.5" ry="2.5" style="stroke:#181818;stroke-width:0.5;" width="71.792" x="9" y="131"/><ellipse cx="24" cy="147" fill="#ADD1B2" rx="11" ry="11" style="stroke:#181818;stroke-width:1;"/><path d="M26.9688,152.6406 Q26.3906,152.9375 25.75,153.0781 Q25.1094,153.2344 24.4063,153.2344 Q21.9063,153.2344 20.5781,151.5938 Q19.2656,149.9375 19.2656,146.8125 Q19.2656,143.6875 20.5781,142.0313 Q21.9063,140.375 24.4063,140.375 Q25.1094,140.375 25.75,140.5313 Q26.4063,140.6875 26.9688,140.9844 L26.9688,143.7031 Q26.3438,143.125 25.75,142.8594 Q25.1563,142.5781 24.5313,142.5781 Q23.1875,142.5781 22.5,143.6563 Q21.8125,144.7188 21.8125,146.8125 Q21.8125,148.9063 22.5,149.9844 Q23.1875,151.0469 24.5313,151.0469 Q25.1563,151.0469 25.75,150.7813 Q26.3438,150.5 26.9688,149.9219 L26.9688,152.6406 Z " fill="#000000"/><text fill="#000000" font-family="sans-serif" font-size="14" lengthAdjust="spacing" textLength="39.792" x="38" y="151.8467">Vodní</text><line style="stroke:#181818;stroke-width:0.5;" x1="10" x2="79.792" y1="163" y2="163"/><g data-visibility-modifier="PUBLIC_FIELD"><ellipse cx="20" cy="176.6484" fill="none" rx="3" ry="3" style="stroke:#038048;stroke-width:1;"/></g><text fill="#000000" font-family="sans-serif" font-size="14" lengthAdjust="spacing" textLength="40.6465" x="29" y="179.9951">ponor</text><line style="stroke:#181818;stroke-width:0.5;" x1="10" x2="79.792" y1="187.2969" y2="187.2969"/></g><!--class Lo?--><g class="entity" data-qualified-name="Lo." data-source-line="21" id="ent0007"><rect fill="#F1F1F1" height="64.2969" rx="2.5" ry="2.5" style="stroke:#181818;stroke-width:0.5;" width="58.6006" x="15.5" y="255"/><ellipse cx="31.1069" cy="271" fill="#ADD1B2" rx="11" ry="11" style="stroke:#181818;stroke-width:1;"/><path d="M34.0756,276.6406 Q33.4975,276.9375 32.8569,277.0781 Q32.2163,277.2344 31.5131,277.2344 Q29.0131,277.2344 27.685,275.5938 Q26.3725,273.9375 26.3725,270.8125 Q26.3725,267.6875 27.685,266.0313 Q29.0131,264.375 31.5131,264.375 Q32.2163,264.375 32.8569,264.5313 Q33.5131,264.6875 34.0756,264.9844 L34.0756,267.7031 Q33.4506,267.125 32.8569,266.8594 Q32.2631,266.5781 31.6381,266.5781 Q30.2944,266.5781 29.6069,267.6563 Q28.9194,268.7188 28.9194,270.8125 Q28.9194,272.9063 29.6069,273.9844 Q30.2944,275.0469 31.6381,275.0469 Q32.2631,275.0469 32.8569,274.7813 Q33.4506,274.5 34.0756,273.9219 L34.0756,276.6406 Z " fill="#000000"/><text fill="#000000" font-family="sans-serif" font-size="14" lengthAdjust="spacing" textLength="25.252" x="45.2417" y="275.8467">Loď</text><line style="stroke:#181818;stroke-width:0.5;" x1="16.5" x2="73.1006" y1="287" y2="287"/><g data-visibility-modifier="PUBLIC_FIELD"><ellipse cx="26.5" cy="300.6484" fill="none" rx="3" ry="3" style="stroke:#038048;stroke-width:1;"/></g><text fill="#000000" font-family="sans-serif" font-size="14" lengthAdjust="spacing" textLength="32.6006" x="35.5" y="303.9951">třída</text><line style="stroke:#181818;stroke-width:0.5;" x1="16.5" x2="73.1006" y1="311.2969" y2="311.2969"/></g><!--class Pozemn?--><g class="entity" data-qualified-name="Pozemn." data-source-line="25" id="ent0008"><rect fill="#F1F1F1" height="64.2969" rx="2.5" ry="2.5" style="stroke:#181818;stroke-width:0.5;" width="142.1426" x="116" y="131"/><ellipse cx="153.8476" cy="147" fill="#ADD1B2" rx="11" ry="11" style="stroke:#181818;stroke-width:1;"/><path d="M156.8164,152.6406 Q156.2382,152.9375 155.5976,153.0781 Q154.957,153.2344 154.2539,153.2344 Q151.7539,153.2344 150.4257,151.5938 Q149.1132,149.9375 149.1132,146.8125 Q149.1132,143.6875 150.4257,142.0313 Q151.7539,140.375 154.2539,140.375 Q154.957,140.375 155.5976,140.5313 Q156.2539,140.6875 156.8164,140.9844 L156.8164,143.7031 Q156.1914,143.125 155.5976,142.8594 Q155.0039,142.5781 154.3789,142.5781 Q153.0351,142.5781 152.3476,143.6563 Q151.6601,144.7188 151.6601,146.8125 Q151.6601,148.9063 152.3476,149.9844 Q153.0351,151.0469 154.3789,151.0469 Q155.0039,151.0469 155.5976,150.7813 Q156.1914,150.5 156.8164,149.9219 L156.8164,152.6406 Z " fill="#000000"/><text fill="#000000" font-family="sans-serif" font-size="14" lengthAdjust="spacing" textLength="59.3701" x="172.9249" y="151.8467">Pozemní</text><line style="stroke:#181818;stroke-width:0.5;" x1="117" x2="257.1426" y1="163" y2="163"/><g data-visibility-modifier="PUBLIC_FIELD"><ellipse cx="127" cy="176.6484" fill="none" rx="3" ry="3" style="stroke:#038048;stroke-width:1;"/></g><text fill="#000000" font-family="sans-serif" font-size="14" lengthAdjust="spacing" textLength="116.1426" x="136" y="179.9951">může_do_terenu</text><line style="stroke:#181818;stroke-width:0.5;" x1="117" x2="257.1426" y1="187.2969" y2="187.2969"/></g><!--class Auto--><g class="entity" data-qualified-name="Auto" data-source-line="29" id="ent0009"><rect fill="#F1F1F1" height="64.2969" rx="2.5" ry="2.5" style="stroke:#181818;stroke-width:0.5;" width="92.8145" x="140.5" y="255"/><ellipse cx="168.2393" cy="271" fill="#ADD1B2" rx="11" ry="11" style="stroke:#181818;stroke-width:1;"/><path d="M171.2081,276.6406 Q170.6299,276.9375 169.9893,277.0781 Q169.3487,277.2344 168.6456,277.2344 Q166.1456,277.2344 164.8174,275.5938 Q163.5049,273.9375 163.5049,270.8125 Q163.5049,267.6875 164.8174,266.0313 Q166.1456,264.375 168.6456,264.375 Q169.3487,264.375 169.9893,264.5313 Q170.6456,264.6875 171.2081,264.9844 L171.2081,267.7031 Q170.5831,267.125 169.9893,266.8594 Q169.3956,266.5781 168.7706,266.5781 Q167.4268,266.5781 166.7393,267.6563 Q166.0518,268.7188 166.0518,270.8125 Q166.0518,272.9063 166.7393,273.9844 Q167.4268,275.0469 168.7706,275.0469 Q169.3956,275.0469 169.9893,274.7813 Q170.5831,274.5 171.2081,273.9219 L171.2081,276.6406 Z " fill="#000000"/><text fill="#000000" font-family="sans-serif" font-size="14" lengthAdjust="spacing" textLength="32.5049" x="185.0703" y="275.8467">Auto</text><line style="stroke:#181818;stroke-width:0.5;" x1="141.5" x2="232.3145" y1="287" y2="287"/><g data-visibility-modifier="PUBLIC_FIELD"><ellipse cx="151.5" cy="300.6484" fill="none" rx="3" ry="3" style="stroke:#038048;stroke-width:1;"/></g><text fill="#000000" font-family="sans-serif" font-size="14" lengthAdjust="spacing" textLength="66.8145" x="160.5" y="303.9951">počet_kol</text><line style="stroke:#181818;stroke-width:0.5;" x1="141.5" x2="232.3145" y1="311.2969" y2="311.2969"/></g><!--class Osobn? auto--><g class="entity" data-qualified-name="Osobn. auto" data-source-line="33" id="ent0010"><rect fill="#F1F1F1" height="64.2969" rx="2.5" ry="2.5" style="stroke:#181818;stroke-width:0.5;" width="172.2139" x="7" y="379"/><ellipse cx="47.0778" cy="395" fill="#ADD1B2" rx="11" ry="11" style="stroke:#181818;stroke-width:1;"/><path d="M50.0466,400.6406 Q49.4685,400.9375 48.8278,401.0781 Q48.1872,401.2344 47.4841,401.2344 Q44.9841,401.2344 43.656,399.5938 Q42.3435,397.9375 42.3435,394.8125 Q42.3435,391.6875 43.656,390.0313 Q44.9841,388.375 47.4841,388.375 Q48.1872,388.375 48.8278,388.5313 Q49.4841,388.6875 50.0466,388.9844 L50.0466,391.7031 Q49.4216,391.125 48.8278,390.8594 Q48.2341,390.5781 47.6091,390.5781 Q46.2653,390.5781 45.5778,391.6563 Q44.8903,392.7188 44.8903,394.8125 Q44.8903,396.9063 45.5778,397.9844 Q46.2653,399.0469 47.6091,399.0469 Q48.2341,399.0469 48.8278,398.7813 Q49.4216,398.5 50.0466,397.9219 L50.0466,400.6406 Z " fill="#000000"/><text fill="#000000" font-family="sans-serif" font-size="14" lengthAdjust="spacing" textLength="84.4854" x="66.6507" y="399.8467">Osobní auto</text><line style="stroke:#181818;stroke-width:0.5;" x1="8" x2="178.2139" y1="411" y2="411"/><g data-visibility-modifier="PUBLIC_FIELD"><ellipse cx="18" cy="424.6484" fill="none" rx="3" ry="3" style="stroke:#038048;stroke-width:1;"/></g><text fill="#000000" font-family="sans-serif" font-size="14" lengthAdjust="spacing" textLength="146.2139" x="27" y="427.9951">má_dálniční_známku</text><line style="stroke:#181818;stroke-width:0.5;" x1="8" x2="178.2139" y1="435.2969" y2="435.2969"/></g><!--class N?kladn? auto--><g class="entity" data-qualified-name="N.kladn. auto" data-source-line="37" id="ent0011"><rect fill="#F1F1F1" height="64.2969" rx="2.5" ry="2.5" style="stroke:#181818;stroke-width:0.5;" width="134.4111" x="214" y="379"/><ellipse cx="231.3295" cy="395" fill="#ADD1B2" rx="11" ry="11" style="stroke:#181818;stroke-width:1;"/><path d="M234.2983,400.6406 Q233.7202,400.9375 233.0795,401.0781 Q232.4389,401.2344 231.7358,401.2344 Q229.2358,401.2344 227.9077,399.5938 Q226.5952,397.9375 226.5952,394.8125 Q226.5952,391.6875 227.9077,390.0313 Q229.2358,388.375 231.7358,388.375 Q232.4389,388.375 233.0795,388.5313 Q233.7358,388.6875 234.2983,388.9844 L234.2983,391.7031 Q233.6733,391.125 233.0795,390.8594 Q232.4858,390.5781 231.8608,390.5781 Q230.517,390.5781 229.8295,391.6563 Q229.142,392.7188 229.142,394.8125 Q229.142,396.9063 229.8295,397.9844 Q230.517,399.0469 231.8608,399.0469 Q232.4858,399.0469 233.0795,398.7813 Q233.6733,398.5 234.2983,397.9219 L234.2983,400.6406 Z " fill="#000000"/><text fill="#000000" font-family="sans-serif" font-size="14" lengthAdjust="spacing" textLength="97.2344" x="245.8472" y="399.8467">Nákladní auto</text><line style="stroke:#181818;stroke-width:0.5;" x1="215" x2="347.4111" y1="411" y2="411"/><g data-visibility-modifier="PUBLIC_FIELD"><ellipse cx="225" cy="424.6484" fill="none" rx="3" ry="3" style="stroke:#038048;stroke-width:1;"/></g><text fill="#000000" font-family="sans-serif" font-size="14" lengthAdjust="spacing" textLength="108.4111" x="234" y="427.9951">max_náklad_kg</text><line style="stroke:#181818;stroke-width:0.5;" x1="215" x2="347.4111" y1="435.2969" y2="435.2969"/></g><!--reverse link dp to Leteck?--><g class="link" data-entity-1="ent0002" data-entity-2="ent0003" data-link-type="extension" data-source-line="41" id="lnk13"><path codeLine="41" d="M239.2034,82.4588 C261.7734,100.8188 276.27,112.61 298.83,130.96" fill="none" id="dp-backto-Letecký" style="stroke:#181818;stroke-width:1;"/><polygon fill="none" points="225.24,71.1,235.4172,87.1133,242.9897,77.8043,225.24,71.1" style="stroke:#181818;stroke-width:1;"/></g><!--reverse link Leteck? to Letadlo--><g class="link" data-entity-1="ent0003" data-entity-2="ent0004" data-link-type="extension" data-source-line="42" id="lnk15"><path codeLine="42" d="M334.5887,213.0784 C333.6887,231.4384 333.43,236.61 332.53,254.96" fill="none" id="Letecký-backto-Letadlo" style="stroke:#181818;stroke-width:1;"/><polygon fill="none" points="335.47,195.1,328.5959,212.7846,340.5815,213.3722,335.47,195.1" style="stroke:#181818;stroke-width:1;"/></g><!--reverse link Leteck? to Vrtuln?k--><g class="link" data-entity-1="ent0003" data-entity-2="ent0005" data-link-type="extension" data-source-line="43" id="lnk17"><path codeLine="43" d="M387.1435,206.7828 C408.6635,225.1428 422.11,236.61 443.61,254.96" fill="none" id="Letecký-backto-Vrtulník" style="stroke:#181818;stroke-width:1;"/><polygon fill="none" points="373.45,195.1,383.2493,211.3473,391.0378,202.2183,373.45,195.1" style="stroke:#181818;stroke-width:1;"/></g><!--reverse link dp to Pozemn?--><g class="link" data-entity-1="ent0002" data-entity-2="ent0008" data-link-type="extension" data-source-line="45" id="lnk19"><path codeLine="45" d="M187,89.1 C187,107.46 187,112.61 187,130.96" fill="none" id="dp-backto-Pozemní" style="stroke:#181818;stroke-width:1;"/><polygon fill="none" points="187,71.1,181,89.1,193,89.1,187,71.1" style="stroke:#181818;stroke-width:1;"/></g><!--reverse link Pozemn? to Auto--><g class="link" data-entity-1="ent0008" data-entity-2="ent0009" data-link-type="extension" data-source-line="46" id="lnk21"><path codeLine="46" d="M187,213.1 C187,231.46 187,236.61 187,254.96" fill="none" id="Pozemní-backto-Auto" style="stroke:#181818;stroke-width:1;"/><polygon fill="none" points="187,195.1,181,213.1,193,213.1,187,195.1" style="stroke:#181818;stroke-width:1;"/></g><!--reverse link Auto to Osobn? auto--><g class="link" data-entity-1="ent0009" data-entity-2="ent0010" data-link-type="extension" data-source-line="47" id="lnk23"><path codeLine="47" d="M152.0521,333.3571 C137.9021,351.7171 131.05,360.61 116.92,378.96" fill="none" id="Auto-backto-Osobní auto" style="stroke:#181818;stroke-width:1;"/><polygon fill="none" points="163.04,319.1,147.2997,329.6945,156.8045,337.0198,163.04,319.1" style="stroke:#181818;stroke-width:1;"/></g><!--reverse link Auto to N?kladn? auto--><g class="link" data-entity-1="ent0009" data-entity-2="ent0011" data-link-type="extension" data-source-line="48" id="lnk25"><path codeLine="48" d="M221.9479,333.3571 C236.0979,351.7171 242.95,360.61 257.08,378.96" fill="none" id="Auto-backto-Nákladní auto" style="stroke:#181818;stroke-width:1;"/><polygon fill="none" points="210.96,319.1,217.1955,337.0198,226.7003,329.6945,210.96,319.1" style="stroke:#181818;stroke-width:1;"/></g><!--reverse link dp to Vodn?--><g class="link" data-entity-1="ent0002" data-entity-2="ent0006" data-link-type="extension" data-source-line="50" id="lnk27"><path codeLine="50" d="M137.1496,82.8332 C115.7896,101.1932 102.49,112.61 81.13,130.96" fill="none" id="dp-backto-Vodní" style="stroke:#181818;stroke-width:1;"/><polygon fill="none" points="150.8,71.1,133.2386,78.2831,141.0607,87.3833,150.8,71.1" style="stroke:#181818;stroke-width:1;"/></g><!--reverse link Vodn? to Lo?--><g class="link" data-entity-1="ent0006" data-entity-2="ent0007" data-link-type="extension" data-source-line="51" id="lnk29"><path codeLine="51" d="M45,213.1 C45,231.46 45,236.61 45,254.96" fill="none" id="Vodní-backto-Loď" style="stroke:#181818;stroke-width:1;"/><polygon fill="none" points="45,195.1,39,213.1,51,213.1,45,195.1" style="stroke:#181818;stroke-width:1;"/></g><?plantuml-src PP11JiCm44NtFeMLBUeLa91OLi2AhUN68oXsF95ZHr3A4IhMB7E0gYSe6oVtmcuQnn5B__VdZ-UNYZSDBUwnDhpLMreRRAm10RAWlA6Y_YGtr7oKhohev8kGyZAm1WkbzET8MtyUEiaNa0k5aRq12ubEO0ipVpRMAUsFCZfgx0zWcK6BPZXb9XJ1CZeqcYmT--yes-777qMszWbtK5rdgk4q_08Jo2mOq6vstJcBsLw9QcR5OuERa41vC1MN7DynuJkbj_qX0BRJlgja5bSy-4ugBfPJ_9tfKMVo9PgdlkZArQlzRUYLN5kYavGw9QcVn18Yqv4qIuedfVTa8CjZ4ezcyk_N2qh6xlCLiVJfET8_?></g></svg>