<?plantuml 1.2026.2?>
<svg xmlns="http://www.w3.org/2000/svg" xmlns:xlink="http://www.w3.org/1999/xlink" contentStyleType="text/css" data-diagram-type="CLASS" height="386px" preserveAspectRatio="none" style="width:699px;height:386px;background:#FFFFFF;" version="1.1" viewBox="0 0 699 386" width="699px" zoomAndPan="magnify"><defs/><g><!--class Iterable--><g class="entity" data-qualified-name="Iterable" data-source-line="1" id="ent0002"><rect fill="#F1F1F1" height="48" rx="2.5" ry="2.5" style="stroke:#181818;stroke-width:0.5;" width="85.9561" x="274.5" y="7"/><ellipse cx="289.5" cy="23" fill="#B4A7E5" rx="11" ry="11" style="stroke:#181818;stroke-width:1;"/><path d="M285.4219,18.7656 L285.4219,16.6094 L292.8125,16.6094 L292.8125,18.7656 L290.3438,18.7656 L290.3438,26.8438 L292.8125,26.8438 L292.8125,29 L285.4219,29 L285.4219,26.8438 L287.8906,26.8438 L287.8906,18.7656 L285.4219,18.7656 Z " fill="#000000"/><text fill="#000000" font-family="sans-serif" font-size="14" font-style="italic" lengthAdjust="spacing" textLength="53.9561" x="303.5" y="27.8467">Iterable</text><line style="stroke:#181818;stroke-width:0.5;" x1="275.5" x2="359.4561" y1="39" y2="39"/><line style="stroke:#181818;stroke-width:0.5;" x1="275.5" x2="359.4561" y1="47" y2="47"/></g><!--class Collection--><g class="entity" data-qualified-name="Collection" data-source-line="2" id="ent0003"><rect fill="#F1F1F1" height="48" rx="2.5" ry="2.5" style="stroke:#181818;stroke-width:0.5;" width="101.248" x="267" y="115"/><ellipse cx="282" cy="131" fill="#B4A7E5" rx="11" ry="11" style="stroke:#181818;stroke-width:1;"/><path d="M277.9219,126.7656 L277.9219,124.6094 L285.3125,124.6094 L285.3125,126.7656 L282.8438,126.7656 L282.8438,134.8438 L285.3125,134.8438 L285.3125,137 L277.9219,137 L277.9219,134.8438 L280.3906,134.8438 L280.3906,126.7656 L277.9219,126.7656 Z " fill="#000000"/><text fill="#000000" font-family="sans-serif" font-size="14" font-style="italic" lengthAdjust="spacing" textLength="69.248" x="296" y="135.8467">Collection</text><line style="stroke:#181818;stroke-width:0.5;" x1="268" x2="367.248" y1="147" y2="147"/><line style="stroke:#181818;stroke-width:0.5;" x1="268" x2="367.248" y1="155" y2="155"/></g><!--class List--><g class="entity" data-qualified-name="List" data-source-line="3" id="ent0004"><rect fill="#F1F1F1" height="48" rx="2.5" ry="2.5" style="stroke:#181818;stroke-width:0.5;" width="56.4727" x="289.5" y="223"/><ellipse cx="304.5" cy="239" fill="#B4A7E5" rx="11" ry="11" style="stroke:#181818;stroke-width:1;"/><path d="M300.4219,234.7656 L300.4219,232.6094 L307.8125,232.6094 L307.8125,234.7656 L305.3438,234.7656 L305.3438,242.8438 L307.8125,242.8438 L307.8125,245 L300.4219,245 L300.4219,242.8438 L302.8906,242.8438 L302.8906,234.7656 L300.4219,234.7656 Z " fill="#000000"/><text fill="#000000" font-family="sans-serif" font-size="14" font-style="italic" lengthAdjust="spacing" textLength="24.4727" x="318.5" y="243.8467">List</text><line style="stroke:#181818;stroke-width:0.5;" x1="290.5" x2="344.9727" y1="255" y2="255"/><line style="stroke:#181818;stroke-width:0.5;" x1="290.5" x2="344.9727" y1="263" y2="263"/></g><!--class Queue--><g class="entity" data-qualified-name="Queue" data-source-line="4" id="ent0005"><rect fill="#F1F1F1" height="48" rx="2.5" ry="2.5" style="stroke:#181818;stroke-width:0.5;" width="77.9922" x="380.5" y="223"/><ellipse cx="395.5" cy="239" fill="#B4A7E5" rx="11" ry="11" style="stroke:#181818;stroke-width:1;"/><path d="M391.4219,234.7656 L391.4219,232.6094 L398.8125,232.6094 L398.8125,234.7656 L396.3438,234.7656 L396.3438,242.8438 L398.8125,242.8438 L398.8125,245 L391.4219,245 L391.4219,242.8438 L393.8906,242.8438 L393.8906,234.7656 L391.4219,234.7656 Z " fill="#000000"/><text fill="#000000" font-family="sans-serif" font-size="14" font-style="italic" lengthAdjust="spacing" textLength="45.9922" x="409.5" y="243.8467">Queue</text><line style="stroke:#181818;stroke-width:0.5;" x1="381.5" x2="457.4922" y1="255" y2="255"/><line style="stroke:#181818;stroke-width:0.5;" x1="381.5" x2="457.4922" y1="263" y2="263"/></g><!--class Set--><g class="entity" data-qualified-name="Set" data-source-line="5" id="ent0006"><rect fill="#F1F1F1" height="48" rx="2.5" ry="2.5" style="stroke:#181818;stroke-width:0.5;" width="54.9893" x="164" y="223"/><ellipse cx="179" cy="239" fill="#B4A7E5" rx="11" ry="11" style="stroke:#181818;stroke-width:1;"/><path d="M174.9219,234.7656 L174.9219,232.6094 L182.3125,232.6094 L182.3125,234.7656 L179.8438,234.7656 L179.8438,242.8438 L182.3125,242.8438 L182.3125,245 L174.9219,245 L174.9219,242.8438 L177.3906,242.8438 L177.3906,234.7656 L174.9219,234.7656 Z " fill="#000000"/><text fill="#000000" font-family="sans-serif" font-size="14" font-style="italic" lengthAdjust="spacing" textLength="22.9893" x="193" y="243.8467">Set</text><line style="stroke:#181818;stroke-width:0.5;" x1="165" x2="217.9893" y1="255" y2="255"/><line style="stroke:#181818;stroke-width:0.5;" x1="165" x2="217.9893" y1="263" y2="263"/></g><!--class Map--><g class="entity" data-qualified-name="Map" data-source-line="6" id="ent0007"><rect fill="#F1F1F1" height="48" rx="2.5" ry="2.5" style="stroke:#181818;stroke-width:0.5;" width="61.5449" x="89.5" y="7"/><ellipse cx="104.5" cy="23" fill="#B4A7E5" rx="11" ry="11" style="stroke:#181818;stroke-width:1;"/><path d="M100.4219,18.7656 L100.4219,16.6094 L107.8125,16.6094 L107.8125,18.7656 L105.3438,18.7656 L105.3438,26.8438 L107.8125,26.8438 L107.8125,29 L100.4219,29 L100.4219,26.8438 L102.8906,26.8438 L102.8906,18.7656 L100.4219,18.7656 Z " fill="#000000"/><text fill="#000000" font-family="sans-serif" font-size="14" font-style="italic" lengthAdjust="spacing" textLength="29.5449" x="118.5" y="27.8467">Map</text><line style="stroke:#181818;stroke-width:0.5;" x1="90.5" x2="150.0449" y1="39" y2="39"/><line style="stroke:#181818;stroke-width:0.5;" x1="90.5" x2="150.0449" y1="47" y2="47"/></g><!--class SortedMap--><g class="entity" data-qualified-name="SortedMap" data-source-line="7" id="ent0008"><rect fill="#F1F1F1" height="48" rx="2.5" ry="2.5" style="stroke:#181818;stroke-width:0.5;" width="107.7422" x="395.5" y="7"/><ellipse cx="410.5" cy="23" fill="#B4A7E5" rx="11" ry="11" style="stroke:#181818;stroke-width:1;"/><path d="M406.4219,18.7656 L406.4219,16.6094 L413.8125,16.6094 L413.8125,18.7656 L411.3438,18.7656 L411.3438,26.8438 L413.8125,26.8438 L413.8125,29 L406.4219,29 L406.4219,26.8438 L408.8906,26.8438 L408.8906,18.7656 L406.4219,18.7656 Z " fill="#000000"/><text fill="#000000" font-family="sans-serif" font-size="14" font-style="italic" lengthAdjust="spacing" textLength="75.7422" x="424.5" y="27.8467">SortedMap</text><line style="stroke:#181818;stroke-width:0.5;" x1="396.5" x2="502.2422" y1="39" y2="39"/><line style="stroke:#181818;stroke-width:0.5;" x1="396.5" x2="502.2422" y1="47" y2="47"/></g><!--class ArrayList--><g class="entity" data-qualified-name="ArrayList" data-source-line="14" id="ent0017"><rect fill="#F1F1F1" height="48" rx="2.5" ry="2.5" style="stroke:#181818;stroke-width:0.5;" width="94.4258" x="270.5" y="331"/><ellipse cx="285.5" cy="347" fill="#ADD1B2" rx="11" ry="11" style="stroke:#181818;stroke-width:1;"/><path d="M288.4688,352.6406 Q287.8906,352.9375 287.25,353.0781 Q286.6094,353.2344 285.9063,353.2344 Q283.4063,353.2344 282.0781,351.5938 Q280.7656,349.9375 280.7656,346.8125 Q280.7656,343.6875 282.0781,342.0313 Q283.4063,340.375 285.9063,340.375 Q286.6094,340.375 287.25,340.5313 Q287.9063,340.6875 288.4688,340.9844 L288.4688,343.7031 Q287.8438,343.125 287.25,342.8594 Q286.6563,342.5781 286.0313,342.5781 Q284.6875,342.5781 284,343.6563 Q283.3125,344.7188 283.3125,346.8125 Q283.3125,348.9063 284,349.9844 Q284.6875,351.0469 286.0313,351.0469 Q286.6563,351.0469 287.25,350.7813 Q287.8438,350.5 288.4688,349.9219 L288.4688,352.6406 Z " fill="#000000"/><text fill="#000000" font-family="sans-serif" font-size="14" lengthAdjust="spacing" textLength="62.4258" x="299.5" y="351.8467">ArrayList</text><line style="stroke:#181818;stroke-width:0.5;" x1="271.5" x2="363.9258" y1="363" y2="363"/><line style="stroke:#181818;stroke-width:0.5;" x1="271.5" x2="363.9258" y1="371" y2="371"/></g><!--class LinkedList--><g class="entity" data-qualified-name="LinkedList" data-source-line="15" id="ent0020"><rect fill="#F1F1F1" height="48" rx="2.5" ry="2.5" style="stroke:#181818;stroke-width:0.5;" width="102.6426" x="400" y="331"/><ellipse cx="415" cy="347" fill="#ADD1B2" rx="11" ry="11" style="stroke:#181818;stroke-width:1;"/><path d="M417.9688,352.6406 Q417.3906,352.9375 416.75,353.0781 Q416.1094,353.2344 415.4063,353.2344 Q412.9063,353.2344 411.5781,351.5938 Q410.2656,349.9375 410.2656,346.8125 Q410.2656,343.6875 411.5781,342.0313 Q412.9063,340.375 415.4063,340.375 Q416.1094,340.375 416.75,340.5313 Q417.4063,340.6875 417.9688,340.9844 L417.9688,343.7031 Q417.3438,343.125 416.75,342.8594 Q416.1563,342.5781 415.5313,342.5781 Q414.1875,342.5781 413.5,343.6563 Q412.8125,344.7188 412.8125,346.8125 Q412.8125,348.9063 413.5,349.9844 Q414.1875,351.0469 415.5313,351.0469 Q416.1563,351.0469 416.75,350.7813 Q417.3438,350.5 417.9688,349.9219 L417.9688,352.6406 Z " fill="#000000"/><text fill="#000000" font-family="sans-serif" font-size="14" lengthAdjust="spacing" textLength="70.6426" x="429" y="351.8467">LinkedList</text><line style="stroke:#181818;stroke-width:0.5;" x1="401" x2="501.6426" y1="363" y2="363"/><line style="stroke:#181818;stroke-width:0.5;" x1="401" x2="501.6426" y1="371" y2="371"/></g><!--class HashSet--><g class="entity" data-qualified-name="HashSet" data-source-line="17" id="ent0023"><rect fill="#F1F1F1" height="48" rx="2.5" ry="2.5" style="stroke:#181818;stroke-width:0.5;" width="90.2627" x="22.5" y="331"/><ellipse cx="37.5" cy="347" fill="#ADD1B2" rx="11" ry="11" style="stroke:#181818;stroke-width:1;"/><path d="M40.4688,352.6406 Q39.8906,352.9375 39.25,353.0781 Q38.6094,353.2344 37.9063,353.2344 Q35.4063,353.2344 34.0781,351.5938 Q32.7656,349.9375 32.7656,346.8125 Q32.7656,343.6875 34.0781,342.0313 Q35.4063,340.375 37.9063,340.375 Q38.6094,340.375 39.25,340.5313 Q39.9063,340.6875 40.4688,340.9844 L40.4688,343.7031 Q39.8438,343.125 39.25,342.8594 Q38.6563,342.5781 38.0313,342.5781 Q36.6875,342.5781 36,343.6563 Q35.3125,344.7188 35.3125,346.8125 Q35.3125,348.9063 36,349.9844 Q36.6875,351.0469 38.0313,351.0469 Q38.6563,351.0469 39.25,350.7813 Q39.8438,350.5 40.4688,349.9219 L40.4688,352.6406 Z " fill="#000000"/><text fill="#000000" font-family="sans-serif" font-size="14" lengthAdjust="spacing" textLength="58.2627" x="51.5" y="351.8467">HashSet</text><line style="stroke:#181818;stroke-width:0.5;" x1="23.5" x2="111.7627" y1="363" y2="363"/><line style="stroke:#181818;stroke-width:0.5;" x1="23.5" x2="111.7627" y1="371" y2="371"/></g><!--class TreeSet--><g class="entity" data-qualified-name="TreeSet" data-source-line="18" id="ent0026"><rect fill="#F1F1F1" height="48" rx="2.5" ry="2.5" style="stroke:#181818;stroke-width:0.5;" width="86.5234" x="148" y="331"/><ellipse cx="163" cy="347" fill="#ADD1B2" rx="11" ry="11" style="stroke:#181818;stroke-width:1;"/><path d="M165.9688,352.6406 Q165.3906,352.9375 164.75,353.0781 Q164.1094,353.2344 163.4063,353.2344 Q160.9063,353.2344 159.5781,351.5938 Q158.2656,349.9375 158.2656,346.8125 Q158.2656,343.6875 159.5781,342.0313 Q160.9063,340.375 163.4063,340.375 Q164.1094,340.375 164.75,340.5313 Q165.4063,340.6875 165.9688,340.9844 L165.9688,343.7031 Q165.3438,343.125 164.75,342.8594 Q164.1563,342.5781 163.5313,342.5781 Q162.1875,342.5781 161.5,343.6563 Q160.8125,344.7188 160.8125,346.8125 Q160.8125,348.9063 161.5,349.9844 Q162.1875,351.0469 163.5313,351.0469 Q164.1563,351.0469 164.75,350.7813 Q165.3438,350.5 165.9688,349.9219 L165.9688,352.6406 Z " fill="#000000"/><text fill="#000000" font-family="sans-serif" font-size="14" lengthAdjust="spacing" textLength="54.5234" x="177" y="351.8467">TreeSet</text><line style="stroke:#181818;stroke-width:0.5;" x1="149" x2="233.5234" y1="363" y2="363"/><line style="stroke:#181818;stroke-width:0.5;" x1="149" x2="233.5234" y1="371" y2="371"/></g><!--class HashMap--><g class="entity" data-qualified-name="HashMap" data-source-line="20" id="ent0029"><rect fill="#F1F1F1" height="48" rx="2.5" ry="2.5" style="stroke:#181818;stroke-width:0.5;" width="96.8184" x="7" y="115"/><ellipse cx="22" cy="131" fill="#ADD1B2" rx="11" ry="11" style="stroke:#181818;stroke-width:1;"/><path d="M24.9688,136.6406 Q24.3906,136.9375 23.75,137.0781 Q23.1094,137.2344 22.4063,137.2344 Q19.9063,137.2344 18.5781,135.5938 Q17.2656,133.9375 17.2656,130.8125 Q17.2656,127.6875 18.5781,126.0313 Q19.9063,124.375 22.4063,124.375 Q23.1094,124.375 23.75,124.5313 Q24.4063,124.6875 24.9688,124.9844 L24.9688,127.7031 Q24.3438,127.125 23.75,126.8594 Q23.1563,126.5781 22.5313,126.5781 Q21.1875,126.5781 20.5,127.6563 Q19.8125,128.7188 19.8125,130.8125 Q19.8125,132.9063 20.5,133.9844 Q21.1875,135.0469 22.5313,135.0469 Q23.1563,135.0469 23.75,134.7813 Q24.3438,134.5 24.9688,133.9219 L24.9688,136.6406 Z " fill="#000000"/><text fill="#000000" font-family="sans-serif" font-size="14" lengthAdjust="spacing" textLength="64.8184" x="36" y="135.8467">HashMap</text><line style="stroke:#181818;stroke-width:0.5;" x1="8" x2="102.8184" y1="147" y2="147"/><line style="stroke:#181818;stroke-width:0.5;" x1="8" x2="102.8184" y1="155" y2="155"/></g><!--class TreeMap--><g class="entity" data-qualified-name="TreeMap" data-source-line="21" id="ent0032"><rect fill="#F1F1F1" height="48" rx="2.5" ry="2.5" style="stroke:#181818;stroke-width:0.5;" width="93.0791" x="139" y="115"/><ellipse cx="154" cy="131" fill="#ADD1B2" rx="11" ry="11" style="stroke:#181818;stroke-width:1;"/><path d="M156.9688,136.6406 Q156.3906,136.9375 155.75,137.0781 Q155.1094,137.2344 154.4063,137.2344 Q151.9063,137.2344 150.5781,135.5938 Q149.2656,133.9375 149.2656,130.8125 Q149.2656,127.6875 150.5781,126.0313 Q151.9063,124.375 154.4063,124.375 Q155.1094,124.375 155.75,124.5313 Q156.4063,124.6875 156.9688,124.9844 L156.9688,127.7031 Q156.3438,127.125 155.75,126.8594 Q155.1563,126.5781 154.5313,126.5781 Q153.1875,126.5781 152.5,127.6563 Q151.8125,128.7188 151.8125,130.8125 Q151.8125,132.9063 152.5,133.9844 Q153.1875,135.0469 154.5313,135.0469 Q155.1563,135.0469 155.75,134.7813 Q156.3438,134.5 156.9688,133.9219 L156.9688,136.6406 Z " fill="#000000"/><text fill="#000000" font-family="sans-serif" font-size="14" lengthAdjust="spacing" textLength="61.0791" x="168" y="135.8467">TreeMap</text><line style="stroke:#181818;stroke-width:0.5;" x1="140" x2="231.0791" y1="147" y2="147"/><line style="stroke:#181818;stroke-width:0.5;" x1="140" x2="231.0791" y1="155" y2="155"/></g><g class="entity" data-qualified-name="N1" data-source-line="24" id="ent0035"><path d="M539,11 L539,51.2656 L692.4185,51.2656 L692.4185,21 L682.4185,11 L539,11" fill="#FEFFDD" style="stroke:#181818;stroke-width:0.5;"/><path d="M682.4185,11 L682.4185,21 L692.4185,21 L682.4185,11" fill="#FEFFDD" style="stroke:#181818;stroke-width:1;"/><text fill="#000000" font-family="sans-serif" font-size="13" lengthAdjust="spacing" textLength="132.4185" x="545" y="28.0669">Zjednodušená verze</text><text fill="#000000" font-family="sans-serif" font-size="13" lengthAdjust="spacing" textLength="62.2959" x="545" y="43.1997">diagramu</text></g><!--reverse link Iterable to Collection--><g class="link" data-entity-1="ent0002" data-entity-2="ent0003" data-link-type="extension" data-source-line="9" id="lnk10"><path codeLine="9" d="M317.5,73 C317.5,90.66 317.5,96.94 317.5,114.68" fill="none" id="Iterable-backto-Collection" style="stroke:#181818;stroke-width:1;"/><polygon fill="none" points="317.5,55,311.5,73,323.5,73,317.5,55" style="stroke:#181818;stroke-width:1;"/></g><!--reverse link Collection to List--><g class="link" data-entity-1="ent0003" data-entity-2="ent0004" data-link-type="extension" data-source-line="10" id="lnk12"><path codeLine="10" d="M317.5,181 C317.5,198.66 317.5,204.94 317.5,222.68" fill="none" id="Collection-backto-List" style="stroke:#181818;stroke-width:1;"/><polygon fill="none" points="317.5,163,311.5,181,323.5,181,317.5,163" style="stroke:#181818;stroke-width:1;"/></g><!--reverse link Collection to Queue--><g class="link" data-entity-1="ent0003" data-entity-2="ent0005" data-link-type="extension" data-source-line="11" id="lnk14"><path codeLine="11" d="M352.1095,175.9716 C369.0995,193.6316 379.99,204.94 397.06,222.68" fill="none" id="Collection-backto-Queue" style="stroke:#181818;stroke-width:1;"/><polygon fill="none" points="339.63,163,347.7856,180.1314,356.4333,171.8118,339.63,163" style="stroke:#181818;stroke-width:1;"/></g><!--reverse link Collection to Set--><g class="link" data-entity-1="ent0003" data-entity-2="ent0006" data-link-type="extension" data-source-line="12" id="lnk16"><path codeLine="12" d="M276.3865,174.5884 C255.3965,192.2484 240.31,204.94 219.22,222.68" fill="none" id="Collection-backto-Set" style="stroke:#181818;stroke-width:1;"/><polygon fill="none" points="290.16,163,272.5237,169.9972,280.2493,179.1795,290.16,163" style="stroke:#181818;stroke-width:1;"/></g><!--reverse link List to ArrayList--><g class="link" data-entity-1="ent0004" data-entity-2="ent0017" data-link-type="extension" data-source-line="14" id="lnk19"><path codeLine="14" d="M317.5,289 C317.5,306.66 317.5,312.94 317.5,330.68" fill="none" id="List-backto-ArrayList" style="stroke:#181818;stroke-width:1;stroke-dasharray:7,7;"/><polygon fill="none" points="317.5,271,311.5,289,323.5,289,317.5,271" style="stroke:#181818;stroke-width:1;"/></g><!--reverse link List to LinkedList--><g class="link" data-entity-1="ent0004" data-entity-2="ent0020" data-link-type="extension" data-source-line="15" id="lnk22"><path codeLine="15" d="M359.7063,281.3883 C382.1163,299.1183 399.3,312.7 422.05,330.71" fill="none" id="List-backto-LinkedList" style="stroke:#181818;stroke-width:1;stroke-dasharray:7,7;"/><polygon fill="none" points="345.59,270.22,355.9835,286.0937,363.429,276.6829,345.59,270.22" style="stroke:#181818;stroke-width:1;"/></g><!--reverse link Set to HashSet--><g class="link" data-entity-1="ent0006" data-entity-2="ent0023" data-link-type="extension" data-source-line="17" id="lnk25"><path codeLine="17" d="M150.9103,282.699 C130.2603,300.359 115.53,312.94 94.78,330.68" fill="none" id="Set-backto-HashSet" style="stroke:#181818;stroke-width:1;stroke-dasharray:7,7;"/><polygon fill="none" points="164.59,271,147.0106,278.1391,154.81,287.2589,164.59,271" style="stroke:#181818;stroke-width:1;"/></g><!--reverse link Set to TreeSet--><g class="link" data-entity-1="ent0006" data-entity-2="ent0026" data-link-type="extension" data-source-line="18" id="lnk28"><path codeLine="18" d="M191.5,289 C191.5,306.66 191.5,312.94 191.5,330.68" fill="none" id="Set-backto-TreeSet" style="stroke:#181818;stroke-width:1;stroke-dasharray:7,7;"/><polygon fill="none" points="191.5,271,185.5,289,197.5,289,191.5,271" style="stroke:#181818;stroke-width:1;"/></g><!--reverse link Map to HashMap--><g class="link" data-entity-1="ent0007" data-entity-2="ent0029" data-link-type="extension" data-source-line="20" id="lnk31"><path codeLine="20" d="M96.99,70.3444 C86.16,88.0044 80.68,96.94 69.8,114.68" fill="none" id="Map-backto-HashMap" style="stroke:#181818;stroke-width:1;stroke-dasharray:7,7;"/><polygon fill="none" points="106.4,55,91.8752,67.2078,102.1048,73.4811,106.4,55" style="stroke:#181818;stroke-width:1;"/></g><!--reverse link Map to TreeMap--><g class="link" data-entity-1="ent0007" data-entity-2="ent0032" data-link-type="extension" data-source-line="21" id="lnk34"><path codeLine="21" d="M144.01,70.3444 C154.84,88.0044 160.32,96.94 171.2,114.68" fill="none" id="Map-backto-TreeMap" style="stroke:#181818;stroke-width:1;stroke-dasharray:7,7;"/><polygon fill="none" points="134.6,55,138.8952,73.4811,149.1248,67.2078,134.6,55" style="stroke:#181818;stroke-width:1;"/></g><?plantuml-src ROz12i8m54JtEKLmtu8N4CIDGXL4L-BcsumQhKb94q7nCZsBU2-JOctGxlBV_CpyaSh2x2a7d_a7xGem-KKJNHJ8hTGgWfciR3Gk7LpyPuLOdLCPQzfOYC1OPyqJLoQFKPSV0dXBenEQf3x1H_PXDZQ6RerRwihKYytfcLHdY3_CfbGTWzC7XXvh0_oWPiqtQ5ae4zO2YXbZIblmmUO4eRHmhnhgMVChp1rR9IGT35tSW5F55yCt?></g></svg>