<?plantuml 1.2026.2?>
<svg xmlns="http://www.w3.org/2000/svg" xmlns:xlink="http://www.w3.org/1999/xlink" contentStyleType="text/css" data-diagram-type="CLASS" height="278px" preserveAspectRatio="none" style="width:620px;height:278px;background:#FFFFFF;" version="1.1" viewBox="0 0 620 278" width="620px" zoomAndPan="magnify"><defs/><g><!--class Object--><g class="entity" data-qualified-name="Object" data-source-line="1" id="ent0002"><rect fill="#F1F1F1" height="48" rx="2.5" ry="2.5" style="stroke:#181818;stroke-width:0.5;" width="77.5957" x="391" y="7"/><ellipse cx="406" cy="23" fill="#ADD1B2" rx="11" ry="11" style="stroke:#181818;stroke-width:1;"/><path d="M408.9688,28.6406 Q408.3906,28.9375 407.75,29.0781 Q407.1094,29.2344 406.4063,29.2344 Q403.9063,29.2344 402.5781,27.5938 Q401.2656,25.9375 401.2656,22.8125 Q401.2656,19.6875 402.5781,18.0313 Q403.9063,16.375 406.4063,16.375 Q407.1094,16.375 407.75,16.5313 Q408.4063,16.6875 408.9688,16.9844 L408.9688,19.7031 Q408.3438,19.125 407.75,18.8594 Q407.1563,18.5781 406.5313,18.5781 Q405.1875,18.5781 404.5,19.6563 Q403.8125,20.7188 403.8125,22.8125 Q403.8125,24.9063 404.5,25.9844 Q405.1875,27.0469 406.5313,27.0469 Q407.1563,27.0469 407.75,26.7813 Q408.3438,26.5 408.9688,25.9219 L408.9688,28.6406 Z " fill="#000000"/><text fill="#000000" font-family="sans-serif" font-size="14" lengthAdjust="spacing" textLength="45.5957" x="420" y="27.8467">Object</text><line style="stroke:#181818;stroke-width:0.5;" x1="392" x2="467.5957" y1="39" y2="39"/><line style="stroke:#181818;stroke-width:0.5;" x1="392" x2="467.5957" y1="47" y2="47"/></g><!--class Number--><g class="entity" data-qualified-name="Number" data-source-line="2" id="ent0003"><rect fill="#F1F1F1" height="48" rx="2.5" ry="2.5" style="stroke:#181818;stroke-width:0.5;" width="88.2393" x="262" y="115"/><ellipse cx="277" cy="131" fill="#A9DCDF" rx="11" ry="11" style="stroke:#181818;stroke-width:1;"/><path d="M277.1094,126.3438 L275.9531,131.4219 L278.2813,131.4219 L277.1094,126.3438 Z M275.625,124.1094 L278.6094,124.1094 L281.9688,136.5 L279.5156,136.5 L278.75,133.4375 L275.4688,133.4375 L274.7188,136.5 L272.2813,136.5 L275.625,124.1094 Z " fill="#000000"/><text fill="#000000" font-family="sans-serif" font-size="14" font-style="italic" lengthAdjust="spacing" textLength="56.2393" x="291" y="135.8467">Number</text><line style="stroke:#181818;stroke-width:0.5;" x1="263" x2="349.2393" y1="147" y2="147"/><line style="stroke:#181818;stroke-width:0.5;" x1="263" x2="349.2393" y1="155" y2="155"/></g><!--class Boolean--><g class="entity" data-qualified-name="Boolean" data-source-line="5" id="ent0006"><rect fill="#F1F1F1" height="48" rx="2.5" ry="2.5" style="stroke:#181818;stroke-width:0.5;" width="88.6904" x="385.5" y="115"/><ellipse cx="400.5" cy="131" fill="#ADD1B2" rx="11" ry="11" style="stroke:#181818;stroke-width:1;"/><path d="M403.4688,136.6406 Q402.8906,136.9375 402.25,137.0781 Q401.6094,137.2344 400.9063,137.2344 Q398.4063,137.2344 397.0781,135.5938 Q395.7656,133.9375 395.7656,130.8125 Q395.7656,127.6875 397.0781,126.0313 Q398.4063,124.375 400.9063,124.375 Q401.6094,124.375 402.25,124.5313 Q402.9063,124.6875 403.4688,124.9844 L403.4688,127.7031 Q402.8438,127.125 402.25,126.8594 Q401.6563,126.5781 401.0313,126.5781 Q399.6875,126.5781 399,127.6563 Q398.3125,128.7188 398.3125,130.8125 Q398.3125,132.9063 399,133.9844 Q399.6875,135.0469 401.0313,135.0469 Q401.6563,135.0469 402.25,134.7813 Q402.8438,134.5 403.4688,133.9219 L403.4688,136.6406 Z " fill="#000000"/><text fill="#000000" font-family="sans-serif" font-size="14" lengthAdjust="spacing" textLength="56.6904" x="414.5" y="135.8467">Boolean</text><line style="stroke:#181818;stroke-width:0.5;" x1="386.5" x2="473.1904" y1="147" y2="147"/><line style="stroke:#181818;stroke-width:0.5;" x1="386.5" x2="473.1904" y1="155" y2="155"/></g><!--class Character--><g class="entity" data-qualified-name="Character" data-source-line="6" id="ent0009"><rect fill="#F1F1F1" height="48" rx="2.5" ry="2.5" style="stroke:#181818;stroke-width:0.5;" width="101.1182" x="509.5" y="115"/><ellipse cx="524.5" cy="131" fill="#ADD1B2" rx="11" ry="11" style="stroke:#181818;stroke-width:1;"/><path d="M527.4688,136.6406 Q526.8906,136.9375 526.25,137.0781 Q525.6094,137.2344 524.9063,137.2344 Q522.4063,137.2344 521.0781,135.5938 Q519.7656,133.9375 519.7656,130.8125 Q519.7656,127.6875 521.0781,126.0313 Q522.4063,124.375 524.9063,124.375 Q525.6094,124.375 526.25,124.5313 Q526.9063,124.6875 527.4688,124.9844 L527.4688,127.7031 Q526.8438,127.125 526.25,126.8594 Q525.6563,126.5781 525.0313,126.5781 Q523.6875,126.5781 523,127.6563 Q522.3125,128.7188 522.3125,130.8125 Q522.3125,132.9063 523,133.9844 Q523.6875,135.0469 525.0313,135.0469 Q525.6563,135.0469 526.25,134.7813 Q526.8438,134.5 527.4688,133.9219 L527.4688,136.6406 Z " fill="#000000"/><text fill="#000000" font-family="sans-serif" font-size="14" lengthAdjust="spacing" textLength="69.1182" x="538.5" y="135.8467">Character</text><line style="stroke:#181818;stroke-width:0.5;" x1="510.5" x2="609.6182" y1="147" y2="147"/><line style="stroke:#181818;stroke-width:0.5;" x1="510.5" x2="609.6182" y1="155" y2="155"/></g><!--class Byte--><g class="entity" data-qualified-name="Byte" data-source-line="8" id="ent0012"><rect fill="#F1F1F1" height="48" rx="2.5" ry="2.5" style="stroke:#181818;stroke-width:0.5;" width="63.9922" x="7" y="223"/><ellipse cx="22" cy="239" fill="#ADD1B2" rx="11" ry="11" style="stroke:#181818;stroke-width:1;"/><path d="M24.9688,244.6406 Q24.3906,244.9375 23.75,245.0781 Q23.1094,245.2344 22.4063,245.2344 Q19.9063,245.2344 18.5781,243.5938 Q17.2656,241.9375 17.2656,238.8125 Q17.2656,235.6875 18.5781,234.0313 Q19.9063,232.375 22.4063,232.375 Q23.1094,232.375 23.75,232.5313 Q24.4063,232.6875 24.9688,232.9844 L24.9688,235.7031 Q24.3438,235.125 23.75,234.8594 Q23.1563,234.5781 22.5313,234.5781 Q21.1875,234.5781 20.5,235.6563 Q19.8125,236.7188 19.8125,238.8125 Q19.8125,240.9063 20.5,241.9844 Q21.1875,243.0469 22.5313,243.0469 Q23.1563,243.0469 23.75,242.7813 Q24.3438,242.5 24.9688,241.9219 L24.9688,244.6406 Z " fill="#000000"/><text fill="#000000" font-family="sans-serif" font-size="14" lengthAdjust="spacing" textLength="31.9922" x="36" y="243.8467">Byte</text><line style="stroke:#181818;stroke-width:0.5;" x1="8" x2="69.9922" y1="255" y2="255"/><line style="stroke:#181818;stroke-width:0.5;" x1="8" x2="69.9922" y1="263" y2="263"/></g><!--class Short--><g class="entity" data-qualified-name="Short" data-source-line="9" id="ent0015"><rect fill="#F1F1F1" height="48" rx="2.5" ry="2.5" style="stroke:#181818;stroke-width:0.5;" width="69.5703" x="106" y="223"/><ellipse cx="121" cy="239" fill="#ADD1B2" rx="11" ry="11" style="stroke:#181818;stroke-width:1;"/><path d="M123.9688,244.6406 Q123.3906,244.9375 122.75,245.0781 Q122.1094,245.2344 121.4063,245.2344 Q118.9063,245.2344 117.5781,243.5938 Q116.2656,241.9375 116.2656,238.8125 Q116.2656,235.6875 117.5781,234.0313 Q118.9063,232.375 121.4063,232.375 Q122.1094,232.375 122.75,232.5313 Q123.4063,232.6875 123.9688,232.9844 L123.9688,235.7031 Q123.3438,235.125 122.75,234.8594 Q122.1563,234.5781 121.5313,234.5781 Q120.1875,234.5781 119.5,235.6563 Q118.8125,236.7188 118.8125,238.8125 Q118.8125,240.9063 119.5,241.9844 Q120.1875,243.0469 121.5313,243.0469 Q122.1563,243.0469 122.75,242.7813 Q123.3438,242.5 123.9688,241.9219 L123.9688,244.6406 Z " fill="#000000"/><text fill="#000000" font-family="sans-serif" font-size="14" lengthAdjust="spacing" textLength="37.5703" x="135" y="243.8467">Short</text><line style="stroke:#181818;stroke-width:0.5;" x1="107" x2="174.5703" y1="255" y2="255"/><line style="stroke:#181818;stroke-width:0.5;" x1="107" x2="174.5703" y1="263" y2="263"/></g><!--class Integer--><g class="entity" data-qualified-name="Integer" data-source-line="10" id="ent0018"><rect fill="#F1F1F1" height="48" rx="2.5" ry="2.5" style="stroke:#181818;stroke-width:0.5;" width="82.3604" x="211" y="223"/><ellipse cx="226" cy="239" fill="#ADD1B2" rx="11" ry="11" style="stroke:#181818;stroke-width:1;"/><path d="M228.9688,244.6406 Q228.3906,244.9375 227.75,245.0781 Q227.1094,245.2344 226.4063,245.2344 Q223.9063,245.2344 222.5781,243.5938 Q221.2656,241.9375 221.2656,238.8125 Q221.2656,235.6875 222.5781,234.0313 Q223.9063,232.375 226.4063,232.375 Q227.1094,232.375 227.75,232.5313 Q228.4063,232.6875 228.9688,232.9844 L228.9688,235.7031 Q228.3438,235.125 227.75,234.8594 Q227.1563,234.5781 226.5313,234.5781 Q225.1875,234.5781 224.5,235.6563 Q223.8125,236.7188 223.8125,238.8125 Q223.8125,240.9063 224.5,241.9844 Q225.1875,243.0469 226.5313,243.0469 Q227.1563,243.0469 227.75,242.7813 Q228.3438,242.5 228.9688,241.9219 L228.9688,244.6406 Z " fill="#000000"/><text fill="#000000" font-family="sans-serif" font-size="14" lengthAdjust="spacing" textLength="50.3604" x="240" y="243.8467">Integer</text><line style="stroke:#181818;stroke-width:0.5;" x1="212" x2="292.3604" y1="255" y2="255"/><line style="stroke:#181818;stroke-width:0.5;" x1="212" x2="292.3604" y1="263" y2="263"/></g><!--class Long--><g class="entity" data-qualified-name="Long" data-source-line="11" id="ent0021"><rect fill="#F1F1F1" height="48" rx="2.5" ry="2.5" style="stroke:#181818;stroke-width:0.5;" width="66.125" x="328" y="223"/><ellipse cx="343" cy="239" fill="#ADD1B2" rx="11" ry="11" style="stroke:#181818;stroke-width:1;"/><path d="M345.9688,244.6406 Q345.3906,244.9375 344.75,245.0781 Q344.1094,245.2344 343.4063,245.2344 Q340.9063,245.2344 339.5781,243.5938 Q338.2656,241.9375 338.2656,238.8125 Q338.2656,235.6875 339.5781,234.0313 Q340.9063,232.375 343.4063,232.375 Q344.1094,232.375 344.75,232.5313 Q345.4063,232.6875 345.9688,232.9844 L345.9688,235.7031 Q345.3438,235.125 344.75,234.8594 Q344.1563,234.5781 343.5313,234.5781 Q342.1875,234.5781 341.5,235.6563 Q340.8125,236.7188 340.8125,238.8125 Q340.8125,240.9063 341.5,241.9844 Q342.1875,243.0469 343.5313,243.0469 Q344.1563,243.0469 344.75,242.7813 Q345.3438,242.5 345.9688,241.9219 L345.9688,244.6406 Z " fill="#000000"/><text fill="#000000" font-family="sans-serif" font-size="14" lengthAdjust="spacing" textLength="34.125" x="357" y="243.8467">Long</text><line style="stroke:#181818;stroke-width:0.5;" x1="329" x2="393.125" y1="255" y2="255"/><line style="stroke:#181818;stroke-width:0.5;" x1="329" x2="393.125" y1="263" y2="263"/></g><!--class Float--><g class="entity" data-qualified-name="Float" data-source-line="12" id="ent0024"><rect fill="#F1F1F1" height="48" rx="2.5" ry="2.5" style="stroke:#181818;stroke-width:0.5;" width="66.5762" x="429.5" y="223"/><ellipse cx="444.5" cy="239" fill="#ADD1B2" rx="11" ry="11" style="stroke:#181818;stroke-width:1;"/><path d="M447.4688,244.6406 Q446.8906,244.9375 446.25,245.0781 Q445.6094,245.2344 444.9063,245.2344 Q442.4063,245.2344 441.0781,243.5938 Q439.7656,241.9375 439.7656,238.8125 Q439.7656,235.6875 441.0781,234.0313 Q442.4063,232.375 444.9063,232.375 Q445.6094,232.375 446.25,232.5313 Q446.9063,232.6875 447.4688,232.9844 L447.4688,235.7031 Q446.8438,235.125 446.25,234.8594 Q445.6563,234.5781 445.0313,234.5781 Q443.6875,234.5781 443,235.6563 Q442.3125,236.7188 442.3125,238.8125 Q442.3125,240.9063 443,241.9844 Q443.6875,243.0469 445.0313,243.0469 Q445.6563,243.0469 446.25,242.7813 Q446.8438,242.5 447.4688,241.9219 L447.4688,244.6406 Z " fill="#000000"/><text fill="#000000" font-family="sans-serif" font-size="14" lengthAdjust="spacing" textLength="34.5762" x="458.5" y="243.8467">Float</text><line style="stroke:#181818;stroke-width:0.5;" x1="430.5" x2="495.0762" y1="255" y2="255"/><line style="stroke:#181818;stroke-width:0.5;" x1="430.5" x2="495.0762" y1="263" y2="263"/></g><!--class Double--><g class="entity" data-qualified-name="Double" data-source-line="13" id="ent0027"><rect fill="#F1F1F1" height="48" rx="2.5" ry="2.5" style="stroke:#181818;stroke-width:0.5;" width="81.6084" x="532" y="223"/><ellipse cx="547" cy="239" fill="#ADD1B2" rx="11" ry="11" style="stroke:#181818;stroke-width:1;"/><path d="M549.9688,244.6406 Q549.3906,244.9375 548.75,245.0781 Q548.1094,245.2344 547.4063,245.2344 Q544.9063,245.2344 543.5781,243.5938 Q542.2656,241.9375 542.2656,238.8125 Q542.2656,235.6875 543.5781,234.0313 Q544.9063,232.375 547.4063,232.375 Q548.1094,232.375 548.75,232.5313 Q549.4063,232.6875 549.9688,232.9844 L549.9688,235.7031 Q549.3438,235.125 548.75,234.8594 Q548.1563,234.5781 547.5313,234.5781 Q546.1875,234.5781 545.5,235.6563 Q544.8125,236.7188 544.8125,238.8125 Q544.8125,240.9063 545.5,241.9844 Q546.1875,243.0469 547.5313,243.0469 Q548.1563,243.0469 548.75,242.7813 Q549.3438,242.5 549.9688,241.9219 L549.9688,244.6406 Z " fill="#000000"/><text fill="#000000" font-family="sans-serif" font-size="14" lengthAdjust="spacing" textLength="49.6084" x="561" y="243.8467">Double</text><line style="stroke:#181818;stroke-width:0.5;" x1="533" x2="612.6084" y1="255" y2="255"/><line style="stroke:#181818;stroke-width:0.5;" x1="533" x2="612.6084" y1="263" y2="263"/></g><!--reverse link Object to Number--><g class="link" data-entity-1="ent0002" data-entity-2="ent0003" data-link-type="extension" data-source-line="4" id="lnk5"><path codeLine="4" d="M389.4103,66.699 C368.7603,84.359 354.03,96.94 333.28,114.68" fill="none" id="Object-backto-Number" style="stroke:#181818;stroke-width:1;"/><polygon fill="none" points="403.09,55,385.5106,62.1391,393.31,71.2589,403.09,55" style="stroke:#181818;stroke-width:1;"/></g><!--reverse link Object to Boolean--><g class="link" data-entity-1="ent0002" data-entity-2="ent0006" data-link-type="extension" data-source-line="5" id="lnk8"><path codeLine="5" d="M430,73 C430,90.66 430,96.94 430,114.68" fill="none" id="Object-backto-Boolean" style="stroke:#181818;stroke-width:1;"/><polygon fill="none" points="430,55,424,73,436,73,430,55" style="stroke:#181818;stroke-width:1;"/></g><!--reverse link Object to Character--><g class="link" data-entity-1="ent0002" data-entity-2="ent0009" data-link-type="extension" data-source-line="6" id="lnk11"><path codeLine="6" d="M472.1582,66.3776 C493.8082,84.0376 509.64,96.94 531.4,114.68" fill="none" id="Object-backto-Character" style="stroke:#181818;stroke-width:1;"/><polygon fill="none" points="458.21,55,468.3656,71.027,475.9507,61.7282,458.21,55" style="stroke:#181818;stroke-width:1;"/></g><!--reverse link Number to Byte--><g class="link" data-entity-1="ent0003" data-entity-2="ent0012" data-link-type="extension" data-source-line="8" id="lnk14"><path codeLine="8" d="M244.8431,161.8522 C200.5231,177.8822 147.46,197.77 88,223 C82.46,225.35 76.63,227.96 71,230.56" fill="none" id="Number-backto-Byte" style="stroke:#181818;stroke-width:1;"/><polygon fill="none" points="261.77,155.73,242.8024,156.21,246.8839,167.4945,261.77,155.73" style="stroke:#181818;stroke-width:1;"/></g><!--reverse link Number to Short--><g class="link" data-entity-1="ent0003" data-entity-2="ent0015" data-link-type="extension" data-source-line="9" id="lnk17"><path codeLine="9" d="M255.0547,172.7273 C227.1847,190.6273 203.87,205.61 176.17,223.41" fill="none" id="Number-backto-Short" style="stroke:#181818;stroke-width:1;"/><polygon fill="none" points="270.2,163,251.8123,167.6789,258.2972,177.7757,270.2,163" style="stroke:#181818;stroke-width:1;"/></g><!--reverse link Number to Integer--><g class="link" data-entity-1="ent0003" data-entity-2="ent0018" data-link-type="extension" data-source-line="10" id="lnk20"><path codeLine="10" d="M286.1141,179.0411 C277.1241,196.7011 272.92,204.94 263.88,222.68" fill="none" id="Number-backto-Integer" style="stroke:#181818;stroke-width:1;"/><polygon fill="none" points="294.28,163,280.7671,176.3192,291.4611,181.7631,294.28,163" style="stroke:#181818;stroke-width:1;"/></g><!--reverse link Number to Long--><g class="link" data-entity-1="ent0003" data-entity-2="ent0021" data-link-type="extension" data-source-line="11" id="lnk23"><path codeLine="11" d="M326.2249,178.9748 C335.3949,196.6348 339.7,204.94 348.9,222.68" fill="none" id="Number-backto-Long" style="stroke:#181818;stroke-width:1;"/><polygon fill="none" points="317.93,163,320.9,181.7398,331.5499,176.2098,317.93,163" style="stroke:#181818;stroke-width:1;"/></g><!--reverse link Number to Float--><g class="link" data-entity-1="ent0003" data-entity-2="ent0024" data-link-type="extension" data-source-line="12" id="lnk26"><path codeLine="12" d="M354.9876,173.073 C381.4076,190.913 402.93,205.44 429.27,223.23" fill="none" id="Number-backto-Float" style="stroke:#181818;stroke-width:1;"/><polygon fill="none" points="340.07,163,351.6299,178.0456,358.3453,168.1005,340.07,163" style="stroke:#181818;stroke-width:1;"/></g><!--reverse link Number to Double--><g class="link" data-entity-1="ent0003" data-entity-2="ent0027" data-link-type="extension" data-source-line="13" id="lnk29"><path codeLine="13" d="M366.819,164.1439 C417.329,184.2039 482.71,210.15 531.92,229.69" fill="none" id="Number-backto-Double" style="stroke:#181818;stroke-width:1;"/><polygon fill="none" points="350.09,157.5,364.6043,169.7202,369.0336,158.5676,350.09,157.5" style="stroke:#181818;stroke-width:1;"/></g><?plantuml-src Iyv9B2vMy4_AIaqkuKfCAYufIamkKKW6Y_gLvYQb5d5nGMW5tT82tHexc5gd_FoSrCGyD57dZ4IG0HYgkPmgIr9XOb1pWpFoYqhGn3ppIbBJ4RgXeZxvUUbeGcuv-OdecbtoIvDoq6m10000?></g></svg>