<?plantuml 1.2026.2?>
<svg xmlns="http://www.w3.org/2000/svg" xmlns:xlink="http://www.w3.org/1999/xlink" contentStyleType="text/css" data-diagram-type="CLASS" height="170px" preserveAspectRatio="none" style="width:347px;height:170px;background:#FFFFFF;" version="1.1" viewBox="0 0 347 170" width="347px" zoomAndPan="magnify"><defs/><g><!--class Map--><g class="entity" data-qualified-name="Map" data-source-line="1" id="ent0002"><rect fill="#F1F1F1" height="48" rx="2.5" ry="2.5" style="stroke:#181818;stroke-width:0.5;" width="61.5449" x="89.5" y="7"/><ellipse cx="104.5" cy="23" fill="#B4A7E5" rx="11" ry="11" style="stroke:#181818;stroke-width:1;"/><path d="M100.4219,18.7656 L100.4219,16.6094 L107.8125,16.6094 L107.8125,18.7656 L105.3438,18.7656 L105.3438,26.8438 L107.8125,26.8438 L107.8125,29 L100.4219,29 L100.4219,26.8438 L102.8906,26.8438 L102.8906,18.7656 L100.4219,18.7656 Z " fill="#000000"/><text fill="#000000" font-family="sans-serif" font-size="14" font-style="italic" lengthAdjust="spacing" textLength="29.5449" x="118.5" y="27.8467">Map</text><line style="stroke:#181818;stroke-width:0.5;" x1="90.5" x2="150.0449" y1="39" y2="39"/><line style="stroke:#181818;stroke-width:0.5;" x1="90.5" x2="150.0449" y1="47" y2="47"/></g><!--class HashMap--><g class="entity" data-qualified-name="HashMap" data-source-line="2" id="ent0003"><rect fill="#F1F1F1" height="48" rx="2.5" ry="2.5" style="stroke:#181818;stroke-width:0.5;" width="96.8184" x="7" y="115"/><ellipse cx="22" cy="131" fill="#ADD1B2" rx="11" ry="11" style="stroke:#181818;stroke-width:1;"/><path d="M24.9688,136.6406 Q24.3906,136.9375 23.75,137.0781 Q23.1094,137.2344 22.4063,137.2344 Q19.9063,137.2344 18.5781,135.5938 Q17.2656,133.9375 17.2656,130.8125 Q17.2656,127.6875 18.5781,126.0313 Q19.9063,124.375 22.4063,124.375 Q23.1094,124.375 23.75,124.5313 Q24.4063,124.6875 24.9688,124.9844 L24.9688,127.7031 Q24.3438,127.125 23.75,126.8594 Q23.1563,126.5781 22.5313,126.5781 Q21.1875,126.5781 20.5,127.6563 Q19.8125,128.7188 19.8125,130.8125 Q19.8125,132.9063 20.5,133.9844 Q21.1875,135.0469 22.5313,135.0469 Q23.1563,135.0469 23.75,134.7813 Q24.3438,134.5 24.9688,133.9219 L24.9688,136.6406 Z " fill="#000000"/><text fill="#000000" font-family="sans-serif" font-size="14" lengthAdjust="spacing" textLength="64.8184" x="36" y="135.8467">HashMap</text><line style="stroke:#181818;stroke-width:0.5;" x1="8" x2="102.8184" y1="147" y2="147"/><line style="stroke:#181818;stroke-width:0.5;" x1="8" x2="102.8184" y1="155" y2="155"/></g><!--class TreeMap--><g class="entity" data-qualified-name="TreeMap" data-source-line="3" id="ent0006"><rect fill="#F1F1F1" height="48" rx="2.5" ry="2.5" style="stroke:#181818;stroke-width:0.5;" width="93.0791" x="139" y="115"/><ellipse cx="154" cy="131" fill="#ADD1B2" rx="11" ry="11" style="stroke:#181818;stroke-width:1;"/><path d="M156.9688,136.6406 Q156.3906,136.9375 155.75,137.0781 Q155.1094,137.2344 154.4063,137.2344 Q151.9063,137.2344 150.5781,135.5938 Q149.2656,133.9375 149.2656,130.8125 Q149.2656,127.6875 150.5781,126.0313 Q151.9063,124.375 154.4063,124.375 Q155.1094,124.375 155.75,124.5313 Q156.4063,124.6875 156.9688,124.9844 L156.9688,127.7031 Q156.3438,127.125 155.75,126.8594 Q155.1563,126.5781 154.5313,126.5781 Q153.1875,126.5781 152.5,127.6563 Q151.8125,128.7188 151.8125,130.8125 Q151.8125,132.9063 152.5,133.9844 Q153.1875,135.0469 154.5313,135.0469 Q155.1563,135.0469 155.75,134.7813 Q156.3438,134.5 156.9688,133.9219 L156.9688,136.6406 Z " fill="#000000"/><text fill="#000000" font-family="sans-serif" font-size="14" lengthAdjust="spacing" textLength="61.0791" x="168" y="135.8467">TreeMap</text><line style="stroke:#181818;stroke-width:0.5;" x1="140" x2="231.0791" y1="147" y2="147"/><line style="stroke:#181818;stroke-width:0.5;" x1="140" x2="231.0791" y1="155" y2="155"/></g><g class="entity" data-qualified-name="N1" data-source-line="6" id="ent0009"><path d="M187,11 L187,51.2656 L340.4185,51.2656 L340.4185,21 L330.4185,11 L187,11" fill="#FEFFDD" style="stroke:#181818;stroke-width:0.5;"/><path d="M330.4185,11 L330.4185,21 L340.4185,21 L330.4185,11" fill="#FEFFDD" style="stroke:#181818;stroke-width:1;"/><text fill="#000000" font-family="sans-serif" font-size="13" lengthAdjust="spacing" textLength="132.4185" x="193" y="28.0669">Zjednodušená verze</text><text fill="#000000" font-family="sans-serif" font-size="13" lengthAdjust="spacing" textLength="62.2959" x="193" y="43.1997">diagramu</text></g><!--reverse link Map to HashMap--><g class="link" data-entity-1="ent0002" data-entity-2="ent0003" data-link-type="extension" data-source-line="2" id="lnk5"><path codeLine="2" d="M96.99,70.3444 C86.16,88.0044 80.68,96.94 69.8,114.68" fill="none" id="Map-backto-HashMap" style="stroke:#181818;stroke-width:1;stroke-dasharray:7,7;"/><polygon fill="none" points="106.4,55,91.8752,67.2078,102.1048,73.4811,106.4,55" style="stroke:#181818;stroke-width:1;"/></g><!--reverse link Map to TreeMap--><g class="link" data-entity-1="ent0002" data-entity-2="ent0006" data-link-type="extension" data-source-line="3" id="lnk8"><path codeLine="3" d="M144.01,70.3444 C154.84,88.0044 160.32,96.94 171.2,114.68" fill="none" id="Map-backto-TreeMap" style="stroke:#181818;stroke-width:1;stroke-dasharray:7,7;"/><polygon fill="none" points="134.6,55,138.8952,73.4811,149.1248,67.2078,134.6,55" style="stroke:#181818;stroke-width:1;"/></g><?plantuml-src oymhIIrAIqnELV1DBE3oI2pE0D8AUgK5UZLsOA6GejHKa12o61TNNdv9ge9IL5PgIbv-IkdHXQbvXnSgbAKMLQN6vALa9gON9UQMAYaa5Ylu6G80?></g></svg>