<?plantuml 1.2026.2?>
<svg xmlns="http://www.w3.org/2000/svg" xmlns:xlink="http://www.w3.org/1999/xlink" contentStyleType="text/css" data-diagram-type="CLASS" height="389px" preserveAspectRatio="none" style="width:747px;height:389px;background:#FFFFFF;" version="1.1" viewBox="0 0 747 389" width="747px" zoomAndPan="magnify"><defs/><g><!--class Iterable--><g class="entity" data-qualified-name="Iterable" data-source-line="1" id="ent0002"><rect fill="#F1F1F1" height="48" rx="2.5" ry="2.5" style="stroke:#181818;stroke-width:0.5;" width="97.5381" x="333" y="10"/><ellipse cx="348" cy="26" fill="#B4A7E5" rx="11" ry="11" style="stroke:#181818;stroke-width:1;"/><path d="M343.9219,21.7656 L343.9219,19.6094 L351.3125,19.6094 L351.3125,21.7656 L348.8438,21.7656 L348.8438,29.8438 L351.3125,29.8438 L351.3125,32 L343.9219,32 L343.9219,29.8438 L346.3906,29.8438 L346.3906,21.7656 L343.9219,21.7656 Z " fill="#000000"/><text fill="#000000" font-family="sans-serif" font-size="14" font-style="italic" lengthAdjust="spacing" textLength="53.9561" x="362" y="30.8467">Iterable</text><rect fill="#FFFFFF" height="15.9688" style="stroke:#181818;stroke-width:1;stroke-dasharray:2,2;" width="9.582" x="423.9561" y="7"/><text fill="#000000" font-family="sans-serif" font-size="12" font-style="italic" lengthAdjust="spacing" textLength="7.582" x="424.9561" y="19.1387">E</text><line style="stroke:#181818;stroke-width:0.5;" x1="334" x2="429.5381" y1="42" y2="42"/><line style="stroke:#181818;stroke-width:0.5;" x1="334" x2="429.5381" y1="50" y2="50"/></g><!--class Collection--><g class="entity" data-qualified-name="Collection" data-source-line="2" id="ent0003"><rect fill="#F1F1F1" height="48" rx="2.5" ry="2.5" style="stroke:#181818;stroke-width:0.5;" width="112.8301" x="325.5" y="118"/><ellipse cx="340.5" cy="134" fill="#B4A7E5" rx="11" ry="11" style="stroke:#181818;stroke-width:1;"/><path d="M336.4219,129.7656 L336.4219,127.6094 L343.8125,127.6094 L343.8125,129.7656 L341.3438,129.7656 L341.3438,137.8438 L343.8125,137.8438 L343.8125,140 L336.4219,140 L336.4219,137.8438 L338.8906,137.8438 L338.8906,129.7656 L336.4219,129.7656 Z " fill="#000000"/><text fill="#000000" font-family="sans-serif" font-size="14" font-style="italic" lengthAdjust="spacing" textLength="69.248" x="354.5" y="138.8467">Collection</text><rect fill="#FFFFFF" height="15.9688" style="stroke:#181818;stroke-width:1;stroke-dasharray:2,2;" width="9.582" x="431.748" y="115"/><text fill="#000000" font-family="sans-serif" font-size="12" font-style="italic" lengthAdjust="spacing" textLength="7.582" x="432.748" y="127.1387">E</text><line style="stroke:#181818;stroke-width:0.5;" x1="326.5" x2="437.3301" y1="150" y2="150"/><line style="stroke:#181818;stroke-width:0.5;" x1="326.5" x2="437.3301" y1="158" y2="158"/></g><!--class List--><g class="entity" data-qualified-name="List" data-source-line="3" id="ent0004"><rect fill="#F1F1F1" height="48" rx="2.5" ry="2.5" style="stroke:#181818;stroke-width:0.5;" width="68.0547" x="348" y="226"/><ellipse cx="363" cy="242" fill="#B4A7E5" rx="11" ry="11" style="stroke:#181818;stroke-width:1;"/><path d="M358.9219,237.7656 L358.9219,235.6094 L366.3125,235.6094 L366.3125,237.7656 L363.8438,237.7656 L363.8438,245.8438 L366.3125,245.8438 L366.3125,248 L358.9219,248 L358.9219,245.8438 L361.3906,245.8438 L361.3906,237.7656 L358.9219,237.7656 Z " fill="#000000"/><text fill="#000000" font-family="sans-serif" font-size="14" font-style="italic" lengthAdjust="spacing" textLength="24.4727" x="377" y="246.8467">List</text><rect fill="#FFFFFF" height="15.9688" style="stroke:#181818;stroke-width:1;stroke-dasharray:2,2;" width="9.582" x="409.4727" y="223"/><text fill="#000000" font-family="sans-serif" font-size="12" font-style="italic" lengthAdjust="spacing" textLength="7.582" x="410.4727" y="235.1387">E</text><line style="stroke:#181818;stroke-width:0.5;" x1="349" x2="415.0547" y1="258" y2="258"/><line style="stroke:#181818;stroke-width:0.5;" x1="349" x2="415.0547" y1="266" y2="266"/></g><!--class Queue--><g class="entity" data-qualified-name="Queue" data-source-line="4" id="ent0005"><rect fill="#F1F1F1" height="48" rx="2.5" ry="2.5" style="stroke:#181818;stroke-width:0.5;" width="89.5742" x="556" y="226"/><ellipse cx="571" cy="242" fill="#B4A7E5" rx="11" ry="11" style="stroke:#181818;stroke-width:1;"/><path d="M566.9219,237.7656 L566.9219,235.6094 L574.3125,235.6094 L574.3125,237.7656 L571.8438,237.7656 L571.8438,245.8438 L574.3125,245.8438 L574.3125,248 L566.9219,248 L566.9219,245.8438 L569.3906,245.8438 L569.3906,237.7656 L566.9219,237.7656 Z " fill="#000000"/><text fill="#000000" font-family="sans-serif" font-size="14" font-style="italic" lengthAdjust="spacing" textLength="45.9922" x="585" y="246.8467">Queue</text><rect fill="#FFFFFF" height="15.9688" style="stroke:#181818;stroke-width:1;stroke-dasharray:2,2;" width="9.582" x="638.9922" y="223"/><text fill="#000000" font-family="sans-serif" font-size="12" font-style="italic" lengthAdjust="spacing" textLength="7.582" x="639.9922" y="235.1387">E</text><line style="stroke:#181818;stroke-width:0.5;" x1="557" x2="644.5742" y1="258" y2="258"/><line style="stroke:#181818;stroke-width:0.5;" x1="557" x2="644.5742" y1="266" y2="266"/></g><!--class Set--><g class="entity" data-qualified-name="Set" data-source-line="5" id="ent0006"><rect fill="#F1F1F1" height="48" rx="2.5" ry="2.5" style="stroke:#181818;stroke-width:0.5;" width="66.5713" x="159.5" y="226"/><ellipse cx="174.5" cy="242" fill="#B4A7E5" rx="11" ry="11" style="stroke:#181818;stroke-width:1;"/><path d="M170.4219,237.7656 L170.4219,235.6094 L177.8125,235.6094 L177.8125,237.7656 L175.3438,237.7656 L175.3438,245.8438 L177.8125,245.8438 L177.8125,248 L170.4219,248 L170.4219,245.8438 L172.8906,245.8438 L172.8906,237.7656 L170.4219,237.7656 Z " fill="#000000"/><text fill="#000000" font-family="sans-serif" font-size="14" font-style="italic" lengthAdjust="spacing" textLength="22.9893" x="188.5" y="246.8467">Set</text><rect fill="#FFFFFF" height="15.9688" style="stroke:#181818;stroke-width:1;stroke-dasharray:2,2;" width="9.582" x="219.4893" y="223"/><text fill="#000000" font-family="sans-serif" font-size="12" font-style="italic" lengthAdjust="spacing" textLength="7.582" x="220.4893" y="235.1387">E</text><line style="stroke:#181818;stroke-width:0.5;" x1="160.5" x2="225.0713" y1="258" y2="258"/><line style="stroke:#181818;stroke-width:0.5;" x1="160.5" x2="225.0713" y1="266" y2="266"/></g><!--class HashSet--><g class="entity" data-qualified-name="HashSet" data-source-line="7" id="ent0007"><rect fill="#F1F1F1" height="48" rx="2.5" ry="2.5" style="stroke:#181818;stroke-width:0.5;" width="101.8447" x="7" y="334"/><ellipse cx="22" cy="350" fill="#ADD1B2" rx="11" ry="11" style="stroke:#181818;stroke-width:1;"/><path d="M24.9688,355.6406 Q24.3906,355.9375 23.75,356.0781 Q23.1094,356.2344 22.4063,356.2344 Q19.9063,356.2344 18.5781,354.5938 Q17.2656,352.9375 17.2656,349.8125 Q17.2656,346.6875 18.5781,345.0313 Q19.9063,343.375 22.4063,343.375 Q23.1094,343.375 23.75,343.5313 Q24.4063,343.6875 24.9688,343.9844 L24.9688,346.7031 Q24.3438,346.125 23.75,345.8594 Q23.1563,345.5781 22.5313,345.5781 Q21.1875,345.5781 20.5,346.6563 Q19.8125,347.7188 19.8125,349.8125 Q19.8125,351.9063 20.5,352.9844 Q21.1875,354.0469 22.5313,354.0469 Q23.1563,354.0469 23.75,353.7813 Q24.3438,353.5 24.9688,352.9219 L24.9688,355.6406 Z " fill="#000000"/><text fill="#000000" font-family="sans-serif" font-size="14" lengthAdjust="spacing" textLength="58.2627" x="36" y="354.8467">HashSet</text><rect fill="#FFFFFF" height="15.9688" style="stroke:#181818;stroke-width:1;stroke-dasharray:2,2;" width="9.582" x="102.2627" y="331"/><text fill="#000000" font-family="sans-serif" font-size="12" font-style="italic" lengthAdjust="spacing" textLength="7.582" x="103.2627" y="343.1387">E</text><line style="stroke:#181818;stroke-width:0.5;" x1="8" x2="107.8447" y1="366" y2="366"/><line style="stroke:#181818;stroke-width:0.5;" x1="8" x2="107.8447" y1="374" y2="374"/></g><!--class TreeSet--><g class="entity" data-qualified-name="TreeSet" data-source-line="8" id="ent0008"><rect fill="#F1F1F1" height="48" rx="2.5" ry="2.5" style="stroke:#181818;stroke-width:0.5;" width="98.1055" x="144" y="334"/><ellipse cx="159" cy="350" fill="#ADD1B2" rx="11" ry="11" style="stroke:#181818;stroke-width:1;"/><path d="M161.9688,355.6406 Q161.3906,355.9375 160.75,356.0781 Q160.1094,356.2344 159.4063,356.2344 Q156.9063,356.2344 155.5781,354.5938 Q154.2656,352.9375 154.2656,349.8125 Q154.2656,346.6875 155.5781,345.0313 Q156.9063,343.375 159.4063,343.375 Q160.1094,343.375 160.75,343.5313 Q161.4063,343.6875 161.9688,343.9844 L161.9688,346.7031 Q161.3438,346.125 160.75,345.8594 Q160.1563,345.5781 159.5313,345.5781 Q158.1875,345.5781 157.5,346.6563 Q156.8125,347.7188 156.8125,349.8125 Q156.8125,351.9063 157.5,352.9844 Q158.1875,354.0469 159.5313,354.0469 Q160.1563,354.0469 160.75,353.7813 Q161.3438,353.5 161.9688,352.9219 L161.9688,355.6406 Z " fill="#000000"/><text fill="#000000" font-family="sans-serif" font-size="14" lengthAdjust="spacing" textLength="54.5234" x="173" y="354.8467">TreeSet</text><rect fill="#FFFFFF" height="15.9688" style="stroke:#181818;stroke-width:1;stroke-dasharray:2,2;" width="9.582" x="235.5234" y="331"/><text fill="#000000" font-family="sans-serif" font-size="12" font-style="italic" lengthAdjust="spacing" textLength="7.582" x="236.5234" y="343.1387">E</text><line style="stroke:#181818;stroke-width:0.5;" x1="145" x2="241.1055" y1="366" y2="366"/><line style="stroke:#181818;stroke-width:0.5;" x1="145" x2="241.1055" y1="374" y2="374"/></g><!--class ArrayList--><g class="entity" data-qualified-name="ArrayList" data-source-line="9" id="ent0009"><rect fill="#F1F1F1" height="48" rx="2.5" ry="2.5" style="stroke:#181818;stroke-width:0.5;" width="106.0078" x="277" y="334"/><ellipse cx="292" cy="350" fill="#ADD1B2" rx="11" ry="11" style="stroke:#181818;stroke-width:1;"/><path d="M294.9688,355.6406 Q294.3906,355.9375 293.75,356.0781 Q293.1094,356.2344 292.4063,356.2344 Q289.9063,356.2344 288.5781,354.5938 Q287.2656,352.9375 287.2656,349.8125 Q287.2656,346.6875 288.5781,345.0313 Q289.9063,343.375 292.4063,343.375 Q293.1094,343.375 293.75,343.5313 Q294.4063,343.6875 294.9688,343.9844 L294.9688,346.7031 Q294.3438,346.125 293.75,345.8594 Q293.1563,345.5781 292.5313,345.5781 Q291.1875,345.5781 290.5,346.6563 Q289.8125,347.7188 289.8125,349.8125 Q289.8125,351.9063 290.5,352.9844 Q291.1875,354.0469 292.5313,354.0469 Q293.1563,354.0469 293.75,353.7813 Q294.3438,353.5 294.9688,352.9219 L294.9688,355.6406 Z " fill="#000000"/><text fill="#000000" font-family="sans-serif" font-size="14" lengthAdjust="spacing" textLength="62.4258" x="306" y="354.8467">ArrayList</text><rect fill="#FFFFFF" height="15.9688" style="stroke:#181818;stroke-width:1;stroke-dasharray:2,2;" width="9.582" x="376.4258" y="331"/><text fill="#000000" font-family="sans-serif" font-size="12" font-style="italic" lengthAdjust="spacing" textLength="7.582" x="377.4258" y="343.1387">E</text><line style="stroke:#181818;stroke-width:0.5;" x1="278" x2="382.0078" y1="366" y2="366"/><line style="stroke:#181818;stroke-width:0.5;" x1="278" x2="382.0078" y1="374" y2="374"/></g><!--class LinkedList--><g class="entity" data-qualified-name="LinkedList" data-source-line="10" id="ent0010"><rect fill="#F1F1F1" height="48" rx="2.5" ry="2.5" style="stroke:#181818;stroke-width:0.5;" width="114.2246" x="418" y="334"/><ellipse cx="433" cy="350" fill="#ADD1B2" rx="11" ry="11" style="stroke:#181818;stroke-width:1;"/><path d="M435.9688,355.6406 Q435.3906,355.9375 434.75,356.0781 Q434.1094,356.2344 433.4063,356.2344 Q430.9063,356.2344 429.5781,354.5938 Q428.2656,352.9375 428.2656,349.8125 Q428.2656,346.6875 429.5781,345.0313 Q430.9063,343.375 433.4063,343.375 Q434.1094,343.375 434.75,343.5313 Q435.4063,343.6875 435.9688,343.9844 L435.9688,346.7031 Q435.3438,346.125 434.75,345.8594 Q434.1563,345.5781 433.5313,345.5781 Q432.1875,345.5781 431.5,346.6563 Q430.8125,347.7188 430.8125,349.8125 Q430.8125,351.9063 431.5,352.9844 Q432.1875,354.0469 433.5313,354.0469 Q434.1563,354.0469 434.75,353.7813 Q435.3438,353.5 435.9688,352.9219 L435.9688,355.6406 Z " fill="#000000"/><text fill="#000000" font-family="sans-serif" font-size="14" lengthAdjust="spacing" textLength="70.6426" x="447" y="354.8467">LinkedList</text><rect fill="#FFFFFF" height="15.9688" style="stroke:#181818;stroke-width:1;stroke-dasharray:2,2;" width="9.582" x="525.6426" y="331"/><text fill="#000000" font-family="sans-serif" font-size="12" font-style="italic" lengthAdjust="spacing" textLength="7.582" x="526.6426" y="343.1387">E</text><line style="stroke:#181818;stroke-width:0.5;" x1="419" x2="531.2246" y1="366" y2="366"/><line style="stroke:#181818;stroke-width:0.5;" x1="419" x2="531.2246" y1="374" y2="374"/></g><g class="entity" data-qualified-name="N2" data-source-line="24" id="ent0027"><path d="M567.5,338 L567.5,378.2656 A0,0 0 0 0 567.5,378.2656 L740.0503,378.2656 A0,0 0 0 0 740.0503,378.2656 L740.0503,348 L730.0503,338 L648.47,338 L612.5,274 L640.47,338 L567.5,338 A0,0 0 0 0 567.5,338" fill="#FEFFDD" style="stroke:#181818;stroke-width:0.5;"/><path d="M730.0503,338 L730.0503,348 L740.0503,348 L730.0503,338" fill="#FEFFDD" style="stroke:#181818;stroke-width:0.5;"/><text fill="#000000" font-family="sans-serif" font-size="13" lengthAdjust="spacing" textLength="147.418" x="573.5" y="355.0669">Frontám se nebudeme</text><text fill="#000000" font-family="sans-serif" font-size="13" lengthAdjust="spacing" textLength="136.3794" x="573.5" y="370.1997">věnovat v této opoře</text></g><g class="entity" data-qualified-name="N1" data-source-line="28" id="ent0029"><path d="M466.5,14 L466.5,54.2656 L619.9185,54.2656 L619.9185,24 L609.9185,14 L466.5,14" fill="#FEFFDD" style="stroke:#181818;stroke-width:0.5;"/><path d="M609.9185,14 L609.9185,24 L619.9185,24 L609.9185,14" fill="#FEFFDD" style="stroke:#181818;stroke-width:1;"/><text fill="#000000" font-family="sans-serif" font-size="13" lengthAdjust="spacing" textLength="132.4185" x="472.5" y="31.0669">Zjednodušená verze</text><text fill="#000000" font-family="sans-serif" font-size="13" lengthAdjust="spacing" textLength="62.2959" x="472.5" y="46.1997">diagramu</text></g><!--reverse link Iterable to Collection--><g class="link" data-entity-1="ent0002" data-entity-2="ent0003" data-link-type="extension" data-source-line="12" id="lnk12"><path codeLine="12" d="M382,76 C382,93.66 382,99.94 382,117.68" fill="none" id="Iterable-backto-Collection" style="stroke:#181818;stroke-width:1;"/><polygon fill="none" points="382,58,376,76,388,76,382,58" style="stroke:#181818;stroke-width:1;"/></g><!--reverse link Collection to List--><g class="link" data-entity-1="ent0003" data-entity-2="ent0004" data-link-type="extension" data-source-line="13" id="lnk14"><path codeLine="13" d="M382,184 C382,201.66 382,207.94 382,225.68" fill="none" id="Collection-backto-List" style="stroke:#181818;stroke-width:1;"/><polygon fill="none" points="382,166,376,184,388,184,382,166" style="stroke:#181818;stroke-width:1;"/></g><!--reverse link Collection to Queue--><g class="link" data-entity-1="ent0003" data-entity-2="ent0005" data-link-type="extension" data-source-line="14" id="lnk16"><path codeLine="14" d="M445.7212,173.8435 C483.2112,191.9935 518.95,209.29 555.82,227.13" fill="none" id="Collection-backto-Queue" style="stroke:#181818;stroke-width:1;"/><polygon fill="none" points="429.52,166,443.1067,179.2439,448.3357,168.4431,429.52,166" style="stroke:#181818;stroke-width:1;"/></g><!--reverse link Collection to Set--><g class="link" data-entity-1="ent0003" data-entity-2="ent0006" data-link-type="extension" data-source-line="15" id="lnk18"><path codeLine="15" d="M325.2904,174.8046 C291.0904,193.9846 258.66,212.18 226.68,230.11" fill="none" id="Collection-backto-Set" style="stroke:#181818;stroke-width:1;"/><polygon fill="none" points="340.99,166,322.3555,169.5714,328.2253,180.0379,340.99,166" style="stroke:#181818;stroke-width:1;"/></g><!--reverse link List to ArrayList--><g class="link" data-entity-1="ent0004" data-entity-2="ent0009" data-link-type="extension" data-source-line="17" id="lnk20"><path codeLine="17" d="M362.7875,290.1578 C354.1175,307.8178 350.14,315.94 341.44,333.68" fill="none" id="List-backto-ArrayList" style="stroke:#181818;stroke-width:1;stroke-dasharray:7,7;"/><polygon fill="none" points="370.72,274,357.4015,287.5136,368.1734,292.802,370.72,274" style="stroke:#181818;stroke-width:1;"/></g><!--reverse link List to LinkedList--><g class="link" data-entity-1="ent0004" data-entity-2="ent0010" data-link-type="extension" data-source-line="18" id="lnk22"><path codeLine="18" d="M414.0493,287.5321 C429.5393,305.1921 438.98,315.94 454.54,333.68" fill="none" id="List-backto-LinkedList" style="stroke:#181818;stroke-width:1;stroke-dasharray:7,7;"/><polygon fill="none" points="402.18,274,409.5386,291.4886,418.5601,283.5757,402.18,274" style="stroke:#181818;stroke-width:1;"/></g><!--reverse link Set to HashSet--><g class="link" data-entity-1="ent0006" data-entity-2="ent0007" data-link-type="extension" data-source-line="20" id="lnk24"><path codeLine="20" d="M149.553,285.1166 C127.063,302.7766 110.29,315.94 87.7,333.68" fill="none" id="Set-backto-HashSet" style="stroke:#181818;stroke-width:1;stroke-dasharray:7,7;"/><polygon fill="none" points="163.71,274,145.8475,280.3976,153.2585,289.8356,163.71,274" style="stroke:#181818;stroke-width:1;"/></g><!--reverse link Set to TreeSet--><g class="link" data-entity-1="ent0006" data-entity-2="ent0008" data-link-type="extension" data-source-line="21" id="lnk26"><path codeLine="21" d="M193,292 C193,309.66 193,315.94 193,333.68" fill="none" id="Set-backto-TreeSet" style="stroke:#181818;stroke-width:1;stroke-dasharray:7,7;"/><polygon fill="none" points="193,274,187,292,199,292,193,274" style="stroke:#181818;stroke-width:1;"/></g><?plantuml-src RO_DIiH048Jl_HJDtZUWPraGKHGMGVGaUvdDb3fhqXFc9w3u8k8fHvyZxdkPpQ-HlTLyNTrJPIJ0FQaKVDC8jSrmThaYCz8BcsL8Wx4ovslZmvpSHSH_o_TeFPHcodk-Llwb9nruSC0Cd3kdteRB7LeRUOKU64rnU1cBvSTgZ4q73mzqyb6RwzYW-VeOfZ459x58ck51qnHaXgblDS16Kj_hBo8I6y2BAsSbr5NE7YpOHeqSl97ovqjigGAN7EhlODaMTl-91IlFjwVKTqYIzj5TUjn1YzLnNq7gYakuTsn46_NiL1wxpPDV?></g></svg>